<?xml version="1.0" encoding="utf-8"?>
<!-- Generator: Adobe Illustrator 26.0.0, SVG Export Plug-In . SVG Version: 6.00 Build 0)  -->
<svg version="1.1" id="Layer_1" xmlns="http://www.w3.org/2000/svg" xmlns:xlink="http://www.w3.org/1999/xlink" x="0px" y="0px"
	 viewBox="0 0 3000 2657.7" style="enable-background:new 0 0 3000 2657.7;" xml:space="preserve">
<style type="text/css">
	.st0{opacity:0.3;}
	.st1{opacity:0;fill:#262A35;}
	.st2{opacity:3.448300e-02;fill:#262A35;}
	.st3{opacity:6.896600e-02;fill:#262A35;}
	.st4{opacity:0.1034;fill:#262A35;}
	.st5{opacity:0.1379;fill:#262A35;}
	.st6{opacity:0.1724;fill:#262A35;}
	.st7{opacity:0.2069;fill:#262A35;}
	.st8{opacity:0.2414;fill:#262A35;}
	.st9{opacity:0.2759;fill:#262A35;}
	.st10{opacity:0.3103;fill:#262A35;}
	.st11{opacity:0.3448;fill:#262A35;}
	.st12{opacity:0.3793;fill:#262A35;}
	.st13{opacity:0.4138;fill:#262A35;}
	.st14{opacity:0.4483;fill:#262A35;}
	.st15{opacity:0.4828;fill:#262A35;}
	.st16{opacity:0.5172;fill:#262A35;}
	.st17{opacity:0.5517;fill:#262A35;}
	.st18{opacity:0.5862;fill:#262A35;}
	.st19{opacity:0.6207;fill:#262A35;}
	.st20{opacity:0.6552;fill:#262A35;}
	.st21{opacity:0.6897;fill:#262A35;}
	.st22{opacity:0.7241;fill:#262A35;}
	.st23{opacity:0.7586;fill:#262A35;}
	.st24{opacity:0.7931;fill:#262A35;}
	.st25{opacity:0.8276;fill:#262A35;}
	.st26{opacity:0.8621;fill:#262A35;}
	.st27{opacity:0.8966;fill:#262A35;}
	.st28{opacity:0.931;fill:#262A35;}
	.st29{opacity:0.9655;fill:#262A35;}
	.st30{fill:#262A35;}
	.st31{fill:url(#SVGID_1_);}
	.st32{fill:url(#SVGID_00000008114907977499613390000017777146058302092682_);}
	.st33{fill:url(#SVGID_00000067209913336952153930000000137438076295548068_);}
	.st34{fill:url(#SVGID_00000144337729867677541760000006490263156949286071_);}
	.st35{fill:url(#SVGID_00000035497502373976730500000001807457068115323064_);}
	.st36{fill:url(#SVGID_00000129926059078725444140000010509775085120081587_);}
	.st37{fill:url(#SVGID_00000064348465831755300670000003371830547990034850_);}
	.st38{fill:url(#SVGID_00000048478748519540732750000010963712761393341574_);}
	.st39{fill:url(#SVGID_00000133498690109053581830000001338560995734677405_);}
	.st40{fill:url(#SVGID_00000052801818486044515640000011403760230119112839_);}
	.st41{fill:url(#SVGID_00000011744561541890381750000016222800236602869156_);}
	.st42{fill:#FF378F;}
	.st43{fill:url(#SVGID_00000096047169796786383380000015522129286251232446_);}
	.st44{fill:url(#SVGID_00000049183737398983919920000015477320113219339966_);}
	.st45{fill:url(#SVGID_00000163790531866375951910000001716922642856555410_);}
	.st46{fill:url(#SVGID_00000055686900490692176380000007254229572395616160_);}
	.st47{fill:url(#SVGID_00000050658170616875809080000014293942947272858277_);}
	.st48{fill:url(#SVGID_00000183226136552172401640000017300551029328122533_);}
	.st49{fill:#FFFFFF;}
	.st50{filter:url(#Adobe_OpacityMaskFilter);}
	.st51{filter:url(#Adobe_OpacityMaskFilter_00000080184980142901959410000001619720685005607592_);}
	
		.st52{mask:url(#SVGID_00000065762368718972806110000004647152443430342785_);fill:url(#SVGID_00000169557946643649314540000012865081422232440481_);}
	.st53{opacity:0.25;fill:url(#SVGID_00000058574278088277815760000014161832311029877127_);}
	.st54{fill:url(#SVGID_00000165930971645632379310000016618365008494064036_);}
	.st55{fill:url(#SVGID_00000091700078227027840840000003463121630397873840_);}
	.st56{fill:#FDFFFC;}
	.st57{filter:url(#Adobe_OpacityMaskFilter_00000180356408260849556000000007380593915589892269_);}
	.st58{filter:url(#Adobe_OpacityMaskFilter_00000155133350520342761860000014593372867021277092_);}
	
		.st59{mask:url(#SVGID_00000153692831263413551280000002899776952791481732_);fill:url(#SVGID_00000104689255281206812000000018269689148027956369_);}
	.st60{opacity:0.25;fill:url(#SVGID_00000071558568428341642560000002000221508020172735_);}
	.st61{fill:#FEFEFE;}
	.st62{fill:url(#SVGID_00000097468096636302948360000008110455938113187512_);}
	.st63{fill:url(#SVGID_00000168089797009353491420000012706252683541456575_);}
	.st64{fill:url(#SVGID_00000052079151489939258330000017550508170221424771_);}
	.st65{fill:url(#SVGID_00000031886714199285348800000011191344808627304840_);}
	.st66{fill:#CFD1D3;}
	.st67{fill:url(#SVGID_00000103262650675814767570000010532315891009198238_);}
	.st68{fill:url(#SVGID_00000159448630760641918390000007335568670166789800_);}
	.st69{fill:url(#SVGID_00000073709650406400800200000001162541804198435218_);}
	.st70{fill:#ED9E9A;}
	.st71{fill:url(#SVGID_00000032640302302455586000000015111045151621765002_);}
	.st72{fill:#DD7C12;}
	.st73{fill:url(#SVGID_00000166638638434136692830000003060806659147470494_);}
	.st74{fill:url(#SVGID_00000083798420995693708670000002298270786175451276_);}
	.st75{fill:url(#SVGID_00000013912762673237322490000017944133690558541195_);}
	.st76{fill:url(#SVGID_00000121250094326458256540000011812128668717890207_);}
	.st77{fill:url(#SVGID_00000142871014917945051450000002932006225407813518_);}
	.st78{fill:url(#SVGID_00000139996941626653805950000003746730731790661306_);}
	.st79{fill:url(#SVGID_00000018217056275904893330000011450618116149701043_);}
	.st80{fill:url(#SVGID_00000036942483552623029890000017009839645886148013_);}
	.st81{fill:url(#SVGID_00000111179114515949931330000011804388682341126789_);}
	.st82{fill:url(#SVGID_00000105406116585118136510000006660298145198198969_);}
	.st83{fill:url(#SVGID_00000132062864860500759040000014429491721703690400_);}
	.st84{fill:url(#SVGID_00000023991561027338069930000010979954068274387359_);}
	.st85{fill:url(#SVGID_00000008137418131989910190000017171075307573923260_);}
	.st86{fill:url(#SVGID_00000010307082790752279280000016593250946305901493_);}
	.st87{fill:url(#SVGID_00000018227670188573902960000014613993608814022813_);}
	.st88{fill:url(#SVGID_00000168839460066195398930000009969452344142631845_);}
	.st89{fill:url(#SVGID_00000085972663657096961780000017448836557303871677_);}
	.st90{fill:url(#SVGID_00000114777724529364593050000016087922199935852682_);}
	.st91{fill:url(#SVGID_00000105420725777075300500000010282472343998146461_);}
	.st92{fill:#EDEBE6;}
	.st93{fill:url(#SVGID_00000067915718905306502240000013996164921044190858_);}
	.st94{fill:url(#SVGID_00000092437243864042781800000002744359594080118170_);}
	.st95{fill:url(#SVGID_00000084504280033194930290000016842705519461705902_);}
	.st96{fill:url(#SVGID_00000058561665322554690840000002005352432793933991_);}
	.st97{fill:url(#SVGID_00000128482760749453278670000007068349538355426968_);}
	.st98{fill:url(#SVGID_00000134957708094370628190000008325578777689456036_);}
	.st99{fill:url(#SVGID_00000163752260013045962090000014119720730608628622_);}
	.st100{fill:url(#SVGID_00000023263446130858856350000016606041637465497486_);}
	.st101{fill:url(#SVGID_00000117640470732045981530000009130060862648733571_);}
	.st102{fill:url(#SVGID_00000137099762681931451080000014548667157191055535_);}
	.st103{fill:url(#SVGID_00000183931433587770186210000011650974723354669953_);}
	.st104{fill:url(#SVGID_00000063619546809578780650000013629587390046767239_);}
	.st105{fill:url(#SVGID_00000089536153240891524110000010797586921828967820_);}
	.st106{fill:url(#SVGID_00000131356596986173387010000017915633846592933552_);}
	.st107{fill:url(#SVGID_00000110462742862567782000000016893905059998078363_);}
	.st108{fill:url(#SVGID_00000010292090895054979550000012697846090089328824_);}
	.st109{fill:url(#SVGID_00000149370958367945026170000004585416084744105625_);}
	.st110{fill:#FFFEFF;}
	.st111{fill:url(#SVGID_00000134240683450636244590000016907627074891756699_);}
	.st112{fill:url(#SVGID_00000173125508176756737020000003081106775286802077_);}
	.st113{fill:url(#SVGID_00000170999124425813254500000014965643446974941106_);}
	.st114{fill:url(#SVGID_00000163035260147325942800000007021761620632708489_);}
	.st115{fill:url(#SVGID_00000124161916973819527850000002105446027971616427_);}
	.st116{fill:url(#SVGID_00000020383840551231900910000017667241742818470561_);}
	.st117{fill:url(#SVGID_00000108293634220491158400000008236303112729849728_);}
	.st118{fill:url(#SVGID_00000025435736414331852470000011694617393958895279_);}
	.st119{fill:url(#SVGID_00000019668006272106553420000014713411073159240356_);}
	.st120{fill:url(#SVGID_00000131354602470583823200000012877370023261299615_);}
	.st121{fill:url(#SVGID_00000114783738672309491220000008461617624700477577_);}
	.st122{fill:url(#SVGID_00000054965600597196919650000011891926533242208443_);}
	.st123{fill:url(#SVGID_00000144299814020225374950000018222930525636535448_);}
	.st124{fill:url(#SVGID_00000021831097505394104070000012930853152073522564_);}
	.st125{fill:url(#SVGID_00000090974263818328583400000009196492529456638607_);}
	.st126{fill:#A5A5A0;}
</style>
<g>
	<g class="st0">
		<ellipse class="st1" cx="2288.2" cy="1885.9" rx="581.5" ry="95"/>
		<ellipse class="st2" cx="2288.2" cy="1885.9" rx="571.4" ry="93.4"/>
		<ellipse class="st3" cx="2288.2" cy="1885.9" rx="561.3" ry="91.7"/>
		<ellipse class="st4" cx="2288.2" cy="1885.9" rx="551.2" ry="90.1"/>
		<ellipse class="st5" cx="2288.2" cy="1885.9" rx="541" ry="88.4"/>
		<ellipse class="st6" cx="2288.2" cy="1885.9" rx="530.9" ry="86.8"/>
		<ellipse class="st7" cx="2288.2" cy="1885.9" rx="520.8" ry="85.1"/>
		<ellipse class="st8" cx="2288.2" cy="1885.9" rx="510.7" ry="83.5"/>
		<ellipse class="st9" cx="2288.2" cy="1885.9" rx="500.6" ry="81.8"/>
		<ellipse class="st10" cx="2288.2" cy="1885.9" rx="490.5" ry="80.2"/>
		<ellipse class="st11" cx="2288.2" cy="1885.9" rx="480.4" ry="78.5"/>
		<ellipse class="st12" cx="2288.2" cy="1885.9" rx="470.3" ry="76.9"/>
		<ellipse class="st13" cx="2288.2" cy="1885.9" rx="460.2" ry="75.2"/>
		<ellipse class="st14" cx="2288.2" cy="1885.9" rx="450.1" ry="73.5"/>
		<ellipse class="st15" cx="2288.2" cy="1885.9" rx="440" ry="71.9"/>
		<ellipse class="st16" cx="2288.2" cy="1885.9" rx="429.8" ry="70.2"/>
		<ellipse class="st17" cx="2288.2" cy="1885.9" rx="419.7" ry="68.6"/>
		<ellipse class="st18" cx="2288.2" cy="1885.9" rx="409.6" ry="66.9"/>
		<ellipse class="st19" cx="2288.2" cy="1885.9" rx="399.5" ry="65.3"/>
		<ellipse class="st20" cx="2288.2" cy="1885.9" rx="389.4" ry="63.6"/>
		<ellipse class="st21" cx="2288.2" cy="1885.9" rx="379.3" ry="62"/>
		<ellipse class="st22" cx="2288.2" cy="1885.9" rx="369.2" ry="60.3"/>
		<ellipse class="st23" cx="2288.2" cy="1885.9" rx="359.1" ry="58.7"/>
		<ellipse class="st24" cx="2288.2" cy="1885.9" rx="349" ry="57"/>
		<ellipse class="st25" cx="2288.2" cy="1885.9" rx="338.9" ry="55.4"/>
		<ellipse class="st26" cx="2288.2" cy="1885.9" rx="328.8" ry="53.7"/>
		<ellipse class="st27" cx="2288.2" cy="1885.9" rx="318.6" ry="52.1"/>
		<ellipse class="st28" cx="2288.2" cy="1885.9" rx="308.5" ry="50.4"/>
		<ellipse class="st29" cx="2288.2" cy="1885.9" rx="298.4" ry="48.8"/>
		<ellipse class="st30" cx="2288.2" cy="1885.9" rx="288.3" ry="47.1"/>
	</g>
	<g class="st0">
		<ellipse class="st1" cx="1651.6" cy="1688.3" rx="581.5" ry="95"/>
		<ellipse class="st2" cx="1651.6" cy="1688.3" rx="571.4" ry="93.4"/>
		<ellipse class="st3" cx="1651.6" cy="1688.3" rx="561.3" ry="91.7"/>
		<ellipse class="st4" cx="1651.6" cy="1688.3" rx="551.2" ry="90.1"/>
		<ellipse class="st5" cx="1651.6" cy="1688.3" rx="541" ry="88.4"/>
		<ellipse class="st6" cx="1651.6" cy="1688.3" rx="530.9" ry="86.8"/>
		<ellipse class="st7" cx="1651.6" cy="1688.3" rx="520.8" ry="85.1"/>
		<ellipse class="st8" cx="1651.6" cy="1688.3" rx="510.7" ry="83.5"/>
		<ellipse class="st9" cx="1651.6" cy="1688.3" rx="500.6" ry="81.8"/>
		<ellipse class="st10" cx="1651.6" cy="1688.3" rx="490.5" ry="80.2"/>
		<ellipse class="st11" cx="1651.6" cy="1688.3" rx="480.4" ry="78.5"/>
		<ellipse class="st12" cx="1651.6" cy="1688.3" rx="470.3" ry="76.9"/>
		<ellipse class="st13" cx="1651.6" cy="1688.3" rx="460.2" ry="75.2"/>
		<ellipse class="st14" cx="1651.6" cy="1688.3" rx="450.1" ry="73.5"/>
		<ellipse class="st15" cx="1651.6" cy="1688.3" rx="440" ry="71.9"/>
		<ellipse class="st16" cx="1651.6" cy="1688.3" rx="429.8" ry="70.2"/>
		<ellipse class="st17" cx="1651.6" cy="1688.3" rx="419.7" ry="68.6"/>
		<ellipse class="st18" cx="1651.6" cy="1688.3" rx="409.6" ry="66.9"/>
		<ellipse class="st19" cx="1651.6" cy="1688.3" rx="399.5" ry="65.3"/>
		<ellipse class="st20" cx="1651.6" cy="1688.3" rx="389.4" ry="63.6"/>
		<ellipse class="st21" cx="1651.6" cy="1688.3" rx="379.3" ry="62"/>
		<ellipse class="st22" cx="1651.6" cy="1688.3" rx="369.2" ry="60.3"/>
		<ellipse class="st23" cx="1651.6" cy="1688.3" rx="359.1" ry="58.7"/>
		<ellipse class="st24" cx="1651.6" cy="1688.3" rx="349" ry="57"/>
		<ellipse class="st25" cx="1651.6" cy="1688.3" rx="338.9" ry="55.4"/>
		<ellipse class="st26" cx="1651.6" cy="1688.3" rx="328.8" ry="53.7"/>
		<ellipse class="st27" cx="1651.6" cy="1688.3" rx="318.6" ry="52.1"/>
		<ellipse class="st28" cx="1651.6" cy="1688.3" rx="308.5" ry="50.4"/>
		<ellipse class="st29" cx="1651.6" cy="1688.3" rx="298.4" ry="48.8"/>
		<ellipse class="st30" cx="1651.6" cy="1688.3" rx="288.3" ry="47.1"/>
	</g>
	<g class="st0">
		<ellipse class="st1" cx="2169.9" cy="2220.6" rx="581.5" ry="95"/>
		<ellipse class="st2" cx="2169.9" cy="2220.6" rx="571.4" ry="93.4"/>
		<ellipse class="st3" cx="2169.9" cy="2220.6" rx="561.3" ry="91.7"/>
		<ellipse class="st4" cx="2169.9" cy="2220.6" rx="551.2" ry="90.1"/>
		<ellipse class="st5" cx="2169.9" cy="2220.6" rx="541" ry="88.4"/>
		<ellipse class="st6" cx="2169.9" cy="2220.6" rx="530.9" ry="86.8"/>
		<ellipse class="st7" cx="2169.9" cy="2220.6" rx="520.8" ry="85.1"/>
		<ellipse class="st8" cx="2169.9" cy="2220.6" rx="510.7" ry="83.5"/>
		<ellipse class="st9" cx="2169.9" cy="2220.6" rx="500.6" ry="81.8"/>
		<ellipse class="st10" cx="2169.9" cy="2220.6" rx="490.5" ry="80.2"/>
		<ellipse class="st11" cx="2169.9" cy="2220.6" rx="480.4" ry="78.5"/>
		<ellipse class="st12" cx="2169.9" cy="2220.6" rx="470.3" ry="76.9"/>
		<ellipse class="st13" cx="2169.9" cy="2220.6" rx="460.2" ry="75.2"/>
		<ellipse class="st14" cx="2169.9" cy="2220.6" rx="450.1" ry="73.5"/>
		<ellipse class="st15" cx="2169.9" cy="2220.6" rx="440" ry="71.9"/>
		<ellipse class="st16" cx="2169.9" cy="2220.6" rx="429.8" ry="70.2"/>
		<ellipse class="st17" cx="2169.9" cy="2220.6" rx="419.7" ry="68.6"/>
		<ellipse class="st18" cx="2169.9" cy="2220.6" rx="409.6" ry="66.9"/>
		<ellipse class="st19" cx="2169.9" cy="2220.6" rx="399.5" ry="65.3"/>
		<ellipse class="st20" cx="2169.9" cy="2220.6" rx="389.4" ry="63.6"/>
		<ellipse class="st21" cx="2169.9" cy="2220.6" rx="379.3" ry="62"/>
		<ellipse class="st22" cx="2169.9" cy="2220.6" rx="369.2" ry="60.3"/>
		<ellipse class="st23" cx="2169.9" cy="2220.6" rx="359.1" ry="58.7"/>
		<ellipse class="st24" cx="2169.9" cy="2220.6" rx="349" ry="57"/>
		<ellipse class="st25" cx="2169.9" cy="2220.6" rx="338.9" ry="55.4"/>
		<ellipse class="st26" cx="2169.9" cy="2220.6" rx="328.8" ry="53.7"/>
		<ellipse class="st27" cx="2169.9" cy="2220.6" rx="318.6" ry="52.1"/>
		<ellipse class="st28" cx="2169.9" cy="2220.6" rx="308.5" ry="50.4"/>
		<ellipse class="st29" cx="2169.9" cy="2220.6" rx="298.4" ry="48.8"/>
		<ellipse class="st30" cx="2169.9" cy="2220.6" rx="288.3" ry="47.1"/>
	</g>
	<g class="st0">
		<ellipse class="st1" cx="1199.1" cy="2315.7" rx="581.5" ry="95"/>
		<ellipse class="st2" cx="1199.1" cy="2315.7" rx="571.4" ry="93.4"/>
		<ellipse class="st3" cx="1199.1" cy="2315.7" rx="561.3" ry="91.7"/>
		<ellipse class="st4" cx="1199.1" cy="2315.7" rx="551.2" ry="90.1"/>
		<ellipse class="st5" cx="1199.1" cy="2315.7" rx="541" ry="88.4"/>
		<ellipse class="st6" cx="1199.1" cy="2315.7" rx="530.9" ry="86.8"/>
		<ellipse class="st7" cx="1199.1" cy="2315.7" rx="520.8" ry="85.1"/>
		<ellipse class="st8" cx="1199.1" cy="2315.7" rx="510.7" ry="83.5"/>
		<ellipse class="st9" cx="1199.1" cy="2315.7" rx="500.6" ry="81.8"/>
		<ellipse class="st10" cx="1199.1" cy="2315.7" rx="490.5" ry="80.2"/>
		<ellipse class="st11" cx="1199.1" cy="2315.7" rx="480.4" ry="78.5"/>
		<ellipse class="st12" cx="1199.1" cy="2315.7" rx="470.3" ry="76.9"/>
		<ellipse class="st13" cx="1199.1" cy="2315.7" rx="460.2" ry="75.2"/>
		<ellipse class="st14" cx="1199.1" cy="2315.7" rx="450.1" ry="73.5"/>
		<ellipse class="st15" cx="1199.1" cy="2315.7" rx="440" ry="71.9"/>
		<ellipse class="st16" cx="1199.1" cy="2315.7" rx="429.8" ry="70.2"/>
		<ellipse class="st17" cx="1199.1" cy="2315.7" rx="419.7" ry="68.6"/>
		<ellipse class="st18" cx="1199.1" cy="2315.7" rx="409.6" ry="66.9"/>
		<ellipse class="st19" cx="1199.1" cy="2315.7" rx="399.5" ry="65.3"/>
		<ellipse class="st20" cx="1199.1" cy="2315.7" rx="389.4" ry="63.6"/>
		<ellipse class="st21" cx="1199.1" cy="2315.7" rx="379.3" ry="62"/>
		<ellipse class="st22" cx="1199.1" cy="2315.7" rx="369.2" ry="60.3"/>
		<ellipse class="st23" cx="1199.1" cy="2315.7" rx="359.1" ry="58.7"/>
		<ellipse class="st24" cx="1199.1" cy="2315.7" rx="349" ry="57"/>
		<ellipse class="st25" cx="1199.1" cy="2315.7" rx="338.9" ry="55.4"/>
		<ellipse class="st26" cx="1199.1" cy="2315.7" rx="328.8" ry="53.7"/>
		<ellipse class="st27" cx="1199.1" cy="2315.7" rx="318.6" ry="52.1"/>
		<ellipse class="st28" cx="1199.1" cy="2315.7" rx="308.5" ry="50.4"/>
		<ellipse class="st29" cx="1199.1" cy="2315.7" rx="298.4" ry="48.8"/>
		<ellipse class="st30" cx="1199.1" cy="2315.7" rx="288.3" ry="47.1"/>
	</g>
	<g class="st0">
		<ellipse class="st1" cx="514" cy="2240.3" rx="383.8" ry="95"/>
		<ellipse class="st2" cx="514" cy="2240.3" rx="377.1" ry="93.4"/>
		<ellipse class="st3" cx="514" cy="2240.3" rx="370.4" ry="91.7"/>
		<ellipse class="st4" cx="514" cy="2240.3" rx="363.7" ry="90.1"/>
		<ellipse class="st5" cx="514" cy="2240.3" rx="357.1" ry="88.4"/>
		<ellipse class="st6" cx="514" cy="2240.3" rx="350.4" ry="86.8"/>
		<ellipse class="st7" cx="514" cy="2240.3" rx="343.7" ry="85.1"/>
		<ellipse class="st8" cx="514" cy="2240.3" rx="337.1" ry="83.5"/>
		<ellipse class="st9" cx="514" cy="2240.3" rx="330.4" ry="81.8"/>
		<ellipse class="st10" cx="514" cy="2240.3" rx="323.7" ry="80.2"/>
		<ellipse class="st11" cx="514" cy="2240.3" rx="317" ry="78.5"/>
		<ellipse class="st12" cx="514" cy="2240.3" rx="310.4" ry="76.9"/>
		<ellipse class="st13" cx="514" cy="2240.3" rx="303.7" ry="75.2"/>
		<ellipse class="st14" cx="514" cy="2240.3" rx="297" ry="73.5"/>
		<ellipse class="st15" cx="514" cy="2240.3" rx="290.4" ry="71.9"/>
		<ellipse class="st16" cx="514" cy="2240.3" rx="283.7" ry="70.2"/>
		<ellipse class="st17" cx="514" cy="2240.3" rx="277" ry="68.6"/>
		<ellipse class="st18" cx="514" cy="2240.3" rx="270.3" ry="66.9"/>
		<ellipse class="st19" cx="514" cy="2240.3" rx="263.7" ry="65.3"/>
		<ellipse class="st20" cx="514" cy="2240.3" rx="257" ry="63.6"/>
		<ellipse class="st21" cx="514" cy="2240.3" rx="250.3" ry="62"/>
		<ellipse class="st22" cx="514" cy="2240.3" rx="243.7" ry="60.3"/>
		<ellipse class="st23" cx="514" cy="2240.3" rx="237" ry="58.7"/>
		<ellipse class="st24" cx="514" cy="2240.3" rx="230.3" ry="57"/>
		<ellipse class="st25" cx="514" cy="2240.3" rx="223.6" ry="55.4"/>
		<ellipse class="st26" cx="514" cy="2240.3" rx="217" ry="53.7"/>
		<ellipse class="st27" cx="514" cy="2240.3" rx="210.3" ry="52.1"/>
		<ellipse class="st28" cx="514" cy="2240.3" rx="203.6" ry="50.4"/>
		<ellipse class="st29" cx="514" cy="2240.3" rx="197" ry="48.8"/>
		<ellipse class="st30" cx="514" cy="2240.3" rx="190.3" ry="47.1"/>
	</g>
	<g class="st0">
		<ellipse class="st1" cx="565.7" cy="2028.1" rx="383.8" ry="95"/>
		<ellipse class="st2" cx="565.7" cy="2028.1" rx="377.1" ry="93.4"/>
		<ellipse class="st3" cx="565.7" cy="2028.1" rx="370.4" ry="91.7"/>
		<ellipse class="st4" cx="565.7" cy="2028.1" rx="363.7" ry="90.1"/>
		<ellipse class="st5" cx="565.7" cy="2028.1" rx="357.1" ry="88.4"/>
		<ellipse class="st6" cx="565.7" cy="2028.1" rx="350.4" ry="86.8"/>
		<ellipse class="st7" cx="565.7" cy="2028.1" rx="343.7" ry="85.1"/>
		<ellipse class="st8" cx="565.7" cy="2028.1" rx="337.1" ry="83.5"/>
		<ellipse class="st9" cx="565.7" cy="2028.1" rx="330.4" ry="81.8"/>
		<ellipse class="st10" cx="565.7" cy="2028.1" rx="323.7" ry="80.2"/>
		<ellipse class="st11" cx="565.7" cy="2028.1" rx="317" ry="78.5"/>
		<ellipse class="st12" cx="565.7" cy="2028.1" rx="310.4" ry="76.9"/>
		<ellipse class="st13" cx="565.7" cy="2028.1" rx="303.7" ry="75.2"/>
		<ellipse class="st14" cx="565.7" cy="2028.1" rx="297" ry="73.5"/>
		<ellipse class="st15" cx="565.7" cy="2028.1" rx="290.4" ry="71.9"/>
		<ellipse class="st16" cx="565.7" cy="2028.1" rx="283.7" ry="70.2"/>
		<ellipse class="st17" cx="565.7" cy="2028.1" rx="277" ry="68.6"/>
		<ellipse class="st18" cx="565.7" cy="2028.1" rx="270.3" ry="66.9"/>
		<ellipse class="st19" cx="565.7" cy="2028.1" rx="263.7" ry="65.3"/>
		<ellipse class="st20" cx="565.7" cy="2028.1" rx="257" ry="63.6"/>
		<ellipse class="st21" cx="565.7" cy="2028.1" rx="250.3" ry="62"/>
		<ellipse class="st22" cx="565.7" cy="2028.1" rx="243.7" ry="60.3"/>
		<ellipse class="st23" cx="565.7" cy="2028.1" rx="237" ry="58.7"/>
		<ellipse class="st24" cx="565.7" cy="2028.1" rx="230.3" ry="57"/>
		<ellipse class="st25" cx="565.7" cy="2028.1" rx="223.6" ry="55.4"/>
		<ellipse class="st26" cx="565.7" cy="2028.1" rx="217" ry="53.7"/>
		<ellipse class="st27" cx="565.7" cy="2028.1" rx="210.3" ry="52.1"/>
		<ellipse class="st28" cx="565.7" cy="2028.1" rx="203.6" ry="50.4"/>
		<ellipse class="st29" cx="565.7" cy="2028.1" rx="197" ry="48.8"/>
		<ellipse class="st30" cx="565.7" cy="2028.1" rx="190.3" ry="47.1"/>
	</g>
	<g class="st0">
		<ellipse class="st1" cx="584.2" cy="1543.5" rx="383.8" ry="95"/>
		<ellipse class="st2" cx="584.2" cy="1543.5" rx="377.1" ry="93.4"/>
		<ellipse class="st3" cx="584.2" cy="1543.5" rx="370.4" ry="91.7"/>
		<ellipse class="st4" cx="584.2" cy="1543.5" rx="363.7" ry="90.1"/>
		<ellipse class="st5" cx="584.2" cy="1543.5" rx="357.1" ry="88.4"/>
		<ellipse class="st6" cx="584.2" cy="1543.5" rx="350.4" ry="86.8"/>
		<ellipse class="st7" cx="584.2" cy="1543.5" rx="343.7" ry="85.1"/>
		<ellipse class="st8" cx="584.2" cy="1543.5" rx="337.1" ry="83.5"/>
		<ellipse class="st9" cx="584.2" cy="1543.5" rx="330.4" ry="81.8"/>
		<ellipse class="st10" cx="584.2" cy="1543.5" rx="323.7" ry="80.2"/>
		<ellipse class="st11" cx="584.2" cy="1543.5" rx="317" ry="78.5"/>
		<ellipse class="st12" cx="584.2" cy="1543.5" rx="310.4" ry="76.9"/>
		<ellipse class="st13" cx="584.2" cy="1543.5" rx="303.7" ry="75.2"/>
		<ellipse class="st14" cx="584.2" cy="1543.5" rx="297" ry="73.5"/>
		<ellipse class="st15" cx="584.2" cy="1543.5" rx="290.4" ry="71.9"/>
		<ellipse class="st16" cx="584.2" cy="1543.5" rx="283.7" ry="70.2"/>
		<ellipse class="st17" cx="584.2" cy="1543.5" rx="277" ry="68.6"/>
		<ellipse class="st18" cx="584.2" cy="1543.5" rx="270.3" ry="66.9"/>
		<ellipse class="st19" cx="584.2" cy="1543.5" rx="263.7" ry="65.3"/>
		<ellipse class="st20" cx="584.2" cy="1543.5" rx="257" ry="63.6"/>
		<ellipse class="st21" cx="584.2" cy="1543.5" rx="250.3" ry="62"/>
		<ellipse class="st22" cx="584.2" cy="1543.5" rx="243.7" ry="60.3"/>
		<ellipse class="st23" cx="584.2" cy="1543.5" rx="237" ry="58.7"/>
		<ellipse class="st24" cx="584.2" cy="1543.5" rx="230.3" ry="57"/>
		<ellipse class="st25" cx="584.2" cy="1543.5" rx="223.6" ry="55.4"/>
		<ellipse class="st26" cx="584.2" cy="1543.5" rx="217" ry="53.7"/>
		<ellipse class="st27" cx="584.2" cy="1543.5" rx="210.3" ry="52.1"/>
		<ellipse class="st28" cx="584.2" cy="1543.5" rx="203.6" ry="50.4"/>
		<ellipse class="st29" cx="584.2" cy="1543.5" rx="197" ry="48.8"/>
		<ellipse class="st30" cx="584.2" cy="1543.5" rx="190.3" ry="47.1"/>
	</g>
	<g>
		<linearGradient id="SVGID_1_" gradientUnits="userSpaceOnUse" x1="844.9718" y1="1915.5266" x2="1651.6149" y2="1915.5266">
			<stop  offset="0" style="stop-color:#587082"/>
			<stop  offset="1" style="stop-color:#1A1E28"/>
		</linearGradient>
		<path class="st31" d="M873,2014.1c-9.4,0-18.1-4.7-23.3-12.4c-5.2-7.8-6.2-17.6-2.6-26.3l34.7-136.9c5.4-13,17.9-21.4,32-21.4
			h648.5c15.4,0,29.8,8.2,37.5,21.5l47.6,130.7c5.5,9.3,5.5,20.5,0.2,29.9c-5.4,9.4-15.1,15-25.9,15H873z"/>
		<g>
			
				<linearGradient id="SVGID_00000072272943097395400400000008625833757906272921_" gradientUnits="userSpaceOnUse" x1="401.5457" y1="1404.2832" x2="563.2123" y2="1404.2832">
				<stop  offset="0" style="stop-color:#F6F2ED"/>
				<stop  offset="0.9953" style="stop-color:#D3D1CD"/>
			</linearGradient>
			<path style="fill:url(#SVGID_00000072272943097395400400000008625833757906272921_);" d="M382.5,1282.2l37.2,234.8
				c0,5.2,30.2,9.4,67.4,9.4c37.2,0,67.4-4.2,67.4-9.4l37.2-234.8H382.5z"/>
			
				<linearGradient id="SVGID_00000049902910258651007430000004485723165317328058_" gradientUnits="userSpaceOnUse" x1="382.5073" y1="1282.1533" x2="591.7457" y2="1282.1533">
				<stop  offset="0" style="stop-color:#587082"/>
				<stop  offset="1" style="stop-color:#1A1E28"/>
			</linearGradient>
			
				<ellipse style="fill:url(#SVGID_00000049902910258651007430000004485723165317328058_);" cx="487.1" cy="1282.2" rx="104.6" ry="14.7"/>
			
				<linearGradient id="SVGID_00000145766710687732999710000015003700365260535975_" gradientUnits="userSpaceOnUse" x1="676.251" y1="1076.16" x2="562.3654" y2="1251.2749">
				<stop  offset="0" style="stop-color:#38ACA8"/>
				<stop  offset="1" style="stop-color:#5F637A"/>
			</linearGradient>
			<path style="fill:url(#SVGID_00000145766710687732999710000015003700365260535975_);" d="M737,1093.2c0,0-91.2-0.1-140.3,76.1
				c-50.9,79.1-50,125.1-50,125.1l-34.9,2.4c0,0-25.1-23.6,0-75.9C536.9,1168.7,636.1,1057.8,737,1093.2z"/>
			
				<linearGradient id="SVGID_00000000940724588823773160000015225627973606999485_" gradientUnits="userSpaceOnUse" x1="509.8644" y1="1187.2476" x2="702.9478" y2="1187.2476">
				<stop  offset="0" style="stop-color:#82D7DB"/>
				<stop  offset="1" style="stop-color:#5DC9A5"/>
			</linearGradient>
			<path style="fill:url(#SVGID_00000000940724588823773160000015225627973606999485_);" d="M487.1,1296.8c0,0,1.3-122.4,80.7-185.5
				c79.4-63,169.2-18.2,169.2-18.2s-86.9-11.9-148.2,39.6c-61.3,51.6-77,164-77,164H487.1z"/>
			
				<linearGradient id="SVGID_00000104705359011314449950000015358516508257014689_" gradientUnits="userSpaceOnUse" x1="435.9635" y1="1156.0947" x2="389.0576" y2="1228.219">
				<stop  offset="0" style="stop-color:#38ACA8"/>
				<stop  offset="1" style="stop-color:#5F637A"/>
			</linearGradient>
			<path style="fill:url(#SVGID_00000104705359011314449950000015358516508257014689_);" d="M494.8,1296.8l-26.9-0.7l-25.2-0.7
				c0,0-3.8-48.8-33.7-98.9c-29.9-50.2-86-98-86-98s53.3-5.3,115.4,56.1C500.4,1215.9,494.8,1296.8,494.8,1296.8z"/>
			
				<linearGradient id="SVGID_00000158742467834134652810000003619216783157307313_" gradientUnits="userSpaceOnUse" x1="489.8721" y1="1268.7225" x2="374.6574" y2="1130.3428">
				<stop  offset="0" style="stop-color:#82D7DB"/>
				<stop  offset="1" style="stop-color:#5DC9A5"/>
			</linearGradient>
			<path style="fill:url(#SVGID_00000158742467834134652810000003619216783157307313_);" d="M494.8,1296.8l-26.9-0.7
				c-4.2-24.8-14.4-62.2-38.3-104.5c-42.9-76.1-106.6-93.1-106.6-93.1s53.3-5.3,115.4,56.1C500.4,1215.9,494.8,1296.8,494.8,1296.8z
				"/>
			
				<linearGradient id="SVGID_00000060026098969032711060000006488867529177620394_" gradientUnits="userSpaceOnUse" x1="536.2424" y1="1245.998" x2="386.5099" y2="1066.1603">
				<stop  offset="0" style="stop-color:#38ACA8"/>
				<stop  offset="1" style="stop-color:#5F637A"/>
			</linearGradient>
			<path style="fill:url(#SVGID_00000060026098969032711060000006488867529177620394_);" d="M526.8,1295.7l-17,0.3l-36.1,0.6
				c0,0-5.3-118.4-36.6-210.2c-31.3-91.9-65-105.4-65-105.4s0.3,0,0.9,0c8.5,0,77,3.2,121.9,105.5
				C542.9,1195.6,526.8,1295.7,526.8,1295.7z"/>
			
				<linearGradient id="SVGID_00000128448699461047914580000015242691185678361517_" gradientUnits="userSpaceOnUse" x1="433.6289" y1="1029.6963" x2="521.4514" y2="1295.073">
				<stop  offset="0" style="stop-color:#82D7DB"/>
				<stop  offset="1" style="stop-color:#5DC9A5"/>
			</linearGradient>
			<path style="fill:url(#SVGID_00000128448699461047914580000015242691185678361517_);" d="M526.8,1295.7l-17,0.3
				c-0.6-45.3-7.4-121.1-39.8-197.5c-47.2-111.2-90.2-117.3-96.9-117.5c8.5,0,77,3.2,121.9,105.5
				C542.9,1195.6,526.8,1295.7,526.8,1295.7z"/>
			
				<linearGradient id="SVGID_00000142174171232407595920000008410336638796859776_" gradientUnits="userSpaceOnUse" x1="595.5584" y1="1204.8662" x2="618.3517" y2="1273.7417">
				<stop  offset="0" style="stop-color:#82D7DB"/>
				<stop  offset="1" style="stop-color:#5DC9A5"/>
			</linearGradient>
			<path style="fill:url(#SVGID_00000142174171232407595920000008410336638796859776_);" d="M515.8,1296.5c0,0,11.6-92.1,88.4-112.2
				c76.9-20.1,110.1,46.8,110.1,46.8s-49.1-20.1-93.2-6c-44.1,14.1-55.6,66.7-55.6,66.7L515.8,1296.5z"/>
			
				<linearGradient id="SVGID_00000036214947995130055510000001016691877706885005_" gradientUnits="userSpaceOnUse" x1="393.3407" y1="1226.1603" x2="421.3391" y2="1310.7642">
				<stop  offset="0" style="stop-color:#82D7DB"/>
				<stop  offset="1" style="stop-color:#5DC9A5"/>
			</linearGradient>
			<path style="fill:url(#SVGID_00000036214947995130055510000001016691877706885005_);" d="M467.9,1296.1c0,0-12.7-52.4-53.6-73.1
				c-40.9-20.7-73.7,0-73.7,0s33.8,0.6,60.4,22.6c26.6,22,33.3,50.3,33.3,50.3L467.9,1296.1z"/>
		</g>
		<path class="st42" d="M834.1,929.9l77.7-14.8l6,28.6c0,0-101.1,36.4-109.4,35.7c-8.3-0.7-37.4-39.3-37.4-39.3L834.1,929.9z"/>
		
			<linearGradient id="SVGID_00000181050583221502479650000008215585759128953279_" gradientUnits="userSpaceOnUse" x1="679.733" y1="1541.2048" x2="751.4279" y2="1530.13">
			<stop  offset="0" style="stop-color:#587082"/>
			<stop  offset="1" style="stop-color:#1A1E28"/>
		</linearGradient>
		<path style="fill:url(#SVGID_00000181050583221502479650000008215585759128953279_);" d="M680.9,1515.6c0,0-8,26.9-1.7,35.1
			c6.2,8.2,30.4,4.7,48.4,1.5c17.9-3.2,36.1,0.2,51.1-1s25.7-18.9,6.2-21.9c-19.4-3-52.2-10.3-56.3-13.7c-4.1-3.4-5.7-6.5-5.7-6.5
			L680.9,1515.6z"/>
		
			<linearGradient id="SVGID_00000013157745954106346130000008456794249094996392_" gradientUnits="userSpaceOnUse" x1="756.262" y1="1550.6129" x2="827.9568" y2="1539.5381">
			<stop  offset="0" style="stop-color:#587082"/>
			<stop  offset="1" style="stop-color:#1A1E28"/>
		</linearGradient>
		<path style="fill:url(#SVGID_00000013157745954106346130000008456794249094996392_);" d="M757.4,1525c0,0-8,26.9-1.7,35.1
			s30.4,4.7,48.4,1.5c17.9-3.2,36.1,0.2,51.1-1c15-1.2,25.7-18.9,6.2-21.9c-19.4-3-52.2-10.3-56.3-13.7c-4.1-3.4-5.7-6.5-5.7-6.5
			L757.4,1525z"/>
		
			<linearGradient id="SVGID_00000047029671846044000950000008030599463667369121_" gradientUnits="userSpaceOnUse" x1="650.0842" y1="1314.0424" x2="730.8906" y2="1301.5601">
			<stop  offset="0" style="stop-color:#587082"/>
			<stop  offset="1" style="stop-color:#1A1E28"/>
		</linearGradient>
		<path style="fill:url(#SVGID_00000047029671846044000950000008030599463667369121_);" d="M617.6,1102.6c0,0-6.3,39.5,22.6,97.3
			s63.2,121.9,63.2,121.9s-19.9,31.6-23.5,93c-3.6,61.4-0.9,100.2-0.9,100.2s9,8.1,24.4,7.2c15.3-0.9,21.7-11.7,21.7-11.7
			s-2.7-102.9,25.3-150.8c28-47.9,30.7-78.5,17.2-116.5C753.9,1205.3,617.6,1102.6,617.6,1102.6z"/>
		
			<linearGradient id="SVGID_00000136409033747738358840000011068388400805935012_" gradientUnits="userSpaceOnUse" x1="744.4481" y1="1300.7986" x2="850.219" y2="1250.2124">
			<stop  offset="0" style="stop-color:#587082"/>
			<stop  offset="1" style="stop-color:#1A1E28"/>
		</linearGradient>
		<path style="fill:url(#SVGID_00000136409033747738358840000011068388400805935012_);" d="M625.7,1107.4c0,0-5.4,35.6,39.7,78
			s96.6,129.5,96.6,129.5s-8.1,53.8-8.1,105.3c0,51.5,1.8,102.9,1.8,102.9s8.1,11.7,24.4,9c16.3-2.7,22.6-12.6,22.6-12.6
			s31.6-210.4,29.8-241.1s-71.3-187.2-71.3-187.2L625.7,1107.4z"/>
		
			<linearGradient id="SVGID_00000066513557490908615350000011766047725252860554_" gradientUnits="userSpaceOnUse" x1="686.4466" y1="795.2996" x2="782.7459" y2="795.2996">
			<stop  offset="0" style="stop-color:#FFD9D9"/>
			<stop  offset="1" style="stop-color:#EFB4B4"/>
		</linearGradient>
		<path style="fill:url(#SVGID_00000066513557490908615350000011766047725252860554_);" d="M770.7,740.1c0,0,11.2,21.3,7.8,26
			c-3.4,4.7-5.3,6-3.6,9.9c1.8,3.9,9.6,14,7.5,22.9s-5.5,33.3-11.7,34.6c-6.2,1.3-10.4-2.6-14.3,1.3c-3.9,3.9-6,15.9-6,15.9
			s-13.3-2.6-33.5-4.2c-20.3-1.6-30.4-3.1-30.4-3.1s10.1-27.8,9.1-36.1s11.4-48.4,27.6-58.8C739.2,738,770.7,740.1,770.7,740.1z"/>
		<g>
			
				<linearGradient id="SVGID_00000177450640942605510710000013527193004031340731_" gradientUnits="userSpaceOnUse" x1="1849.3864" y1="564.045" x2="1332.6074" y2="1536.6158">
				<stop  offset="0" style="stop-color:#587082"/>
				<stop  offset="1" style="stop-color:#1A1E28"/>
			</linearGradient>
			<path style="fill:url(#SVGID_00000177450640942605510710000013527193004031340731_);" d="M1021.1,1511.5v-914
				c0-29.7,24.1-53.8,53.8-53.8h1027.9c29.7,0,53.8,24.1,53.8,53.8v914c0,29.7-24.1,53.8-53.8,53.8H1074.9
				C1045.1,1565.3,1021.1,1541.2,1021.1,1511.5z"/>
			<path class="st49" d="M2086.6,1537.1H1091c-26.6,0-48.2-21.6-48.2-48.2V619.9c0-26.6,21.6-48.2,48.2-48.2h995.5
				c26.6,0,48.2,21.6,48.2,48.2V1489C2134.7,1515.6,2113.2,1537.1,2086.6,1537.1z"/>
		</g>
		<g>
			<defs>
				<filter id="Adobe_OpacityMaskFilter" filterUnits="userSpaceOnUse" x="795.4" y="610.6" width="1075" height="704.9">
					<feFlood  style="flood-color:white;flood-opacity:1" result="back"/>
					<feBlend  in="SourceGraphic" in2="back" mode="normal"/>
				</filter>
			</defs>
			
				<mask maskUnits="userSpaceOnUse" x="795.4" y="610.6" width="1075" height="704.9" id="SVGID_00000077301427886713489170000009316207117873838739_">
				<g class="st50">
					<defs>
						
							<filter id="Adobe_OpacityMaskFilter_00000001625915338733583980000010916372711666925990_" filterUnits="userSpaceOnUse" x="795.4" y="610.6" width="1075" height="704.9">
							<feFlood  style="flood-color:white;flood-opacity:1" result="back"/>
							<feBlend  in="SourceGraphic" in2="back" mode="normal"/>
						</filter>
					</defs>
					
						<mask maskUnits="userSpaceOnUse" x="795.4" y="610.6" width="1075" height="704.9" id="SVGID_00000077301427886713489170000009316207117873838739_">
						<g style="filter:url(#Adobe_OpacityMaskFilter_00000001625915338733583980000010916372711666925990_);">
						</g>
					</mask>
					
						<linearGradient id="SVGID_00000047741825185166827550000018434446901017948814_" gradientUnits="userSpaceOnUse" x1="1537.7271" y1="577.5766" x2="1131.4976" y2="1342.0948">
						<stop  offset="0" style="stop-color:#FFFFFF"/>
						<stop  offset="1" style="stop-color:#1A1A1A"/>
					</linearGradient>
					
						<path style="mask:url(#SVGID_00000077301427886713489170000009316207117873838739_);fill:url(#SVGID_00000047741825185166827550000018434446901017948814_);" d="
						M1870.4,651.3v623.5c0,22.5-18.3,40.7-40.7,40.7H836.1c-22.4,0-40.7-18.2-40.7-40.7V651.3c0-22.4,18.3-40.7,40.7-40.7h993.6
						C1852.1,610.6,1870.4,628.9,1870.4,651.3z"/>
				</g>
			</mask>
			
				<linearGradient id="SVGID_00000098194548629078113940000011370453426197225658_" gradientUnits="userSpaceOnUse" x1="1537.7271" y1="577.5766" x2="1131.4976" y2="1342.0948">
				<stop  offset="0" style="stop-color:#0C5C93"/>
				<stop  offset="1" style="stop-color:#0C5C93"/>
			</linearGradient>
			<path style="opacity:0.25;fill:url(#SVGID_00000098194548629078113940000011370453426197225658_);" d="M1870.4,651.3v623.5
				c0,22.5-18.3,40.7-40.7,40.7H836.1c-22.4,0-40.7-18.2-40.7-40.7V651.3c0-22.4,18.3-40.7,40.7-40.7h993.6
				C1852.1,610.6,1870.4,628.9,1870.4,651.3z"/>
			
				<linearGradient id="SVGID_00000090278664935696662260000005267102503882698135_" gradientUnits="userSpaceOnUse" x1="1557.156" y1="559.1917" x2="1150.9265" y2="1323.71">
				<stop  offset="0" style="stop-color:#38ACA8"/>
				<stop  offset="1" style="stop-color:#5F637A"/>
			</linearGradient>
			<path style="fill:url(#SVGID_00000090278664935696662260000005267102503882698135_);" d="M1889.8,632.9v623.5
				c0,22.5-18.3,40.7-40.7,40.7H855.5c-22.4,0-40.7-18.2-40.7-40.7V632.9c0-22.4,18.3-40.7,40.7-40.7h993.6
				C1871.5,592.2,1889.8,610.5,1889.8,632.9z"/>
			
				<linearGradient id="SVGID_00000031892807814903424990000007059693589852398720_" gradientUnits="userSpaceOnUse" x1="1462.9794" y1="448.6971" x2="1249.3975" y2="850.6555">
				<stop  offset="0" style="stop-color:#587082"/>
				<stop  offset="1" style="stop-color:#1A1E28"/>
			</linearGradient>
			<path style="fill:url(#SVGID_00000031892807814903424990000007059693589852398720_);" d="M1889.8,632.9v58.2h-1075v-58.2
				c0-22.4,18.3-40.7,40.7-40.7h993.6C1871.5,592.2,1889.8,610.5,1889.8,632.9z"/>
			<path class="st49" d="M1854.7,1265.9h-482.2c-1.8,0-3.2-1.4-3.2-3.2V711.6c0-1.8,1.4-3.2,3.2-3.2h482.2c1.8,0,3.2,1.4,3.2,3.2
				v551.2C1857.9,1264.5,1856.5,1265.9,1854.7,1265.9z"/>
			
				<ellipse transform="matrix(0.9891 -0.1472 0.1472 0.9891 -84.7061 137.7502)" class="st56" cx="888.1" cy="641" rx="11.8" ry="11.8"/>
			
				<ellipse transform="matrix(0.9894 -0.1451 0.1451 0.9894 -83.1481 142.283)" class="st56" cx="933.6" cy="641" rx="11.8" ry="11.8"/>
			
				<ellipse transform="matrix(0.3947 -0.9188 0.9188 0.3947 3.6655 1287.6252)" class="st56" cx="979.1" cy="641" rx="11.8" ry="11.8"/>
			<g>
				<path class="st49" d="M1061.3,953.2c1-5.4,1.5-11,1.5-16.8c0-5.8-0.5-11.4-1.5-16.8l-23.1-0.1c-1.7-7.6-4.7-14.9-8.8-21.4
					l16.4-16.2c-6.4-9.3-14.5-17.4-23.7-23.8l-16.4,16.3c-6.5-4.1-13.6-7.2-21.2-8.9l0.1-23.1c-5.4-1-11-1.5-16.7-1.5
					c-5.8,0-11.4,0.5-16.8,1.5l-0.1,23.1c-7.6,1.7-14.8,4.7-21.3,8.8L913.3,858c-9.3,6.4-17.4,14.5-23.8,23.7l16.3,16.3
					c-4.1,6.5-7.2,13.7-8.9,21.4l-23.1-0.1c-1,5.4-1.5,11-1.5,16.7c0,5.8,0.5,11.4,1.5,16.8l23.1,0.1c1.7,7.6,4.7,14.8,8.8,21.3
					l-16.4,16.3c6.4,9.3,14.3,17.3,23.6,23.8l16.4-16.3c6.5,4.1,13.7,7.2,21.4,8.9l-0.1,23.1c5.4,1,11,1.5,16.8,1.5
					c5.8,0,11.4-0.5,16.8-1.5l0.1-23.1c7.6-1.7,14.9-4.7,21.4-8.8l16.3,16.4c9.3-6.5,17.3-14.5,23.7-23.7l-16.3-16.4
					c4.1-6.5,7.2-13.6,8.9-21.2L1061.3,953.2z M967.4,978c-23.1-0.1-41.7-18.8-41.7-41.9c0.1-23.1,18.8-41.7,41.9-41.7
					c23.1,0.1,41.7,18.8,41.7,41.9C1009.2,959.4,990.5,978.1,967.4,978z"/>
				<path class="st49" d="M1351.2,903.6c1.6-8.6,2.4-17.6,2.5-26.8c0-9.2-0.8-18.2-2.3-26.8l-37-0.1c-2.8-12.2-7.5-23.8-14.1-34.2
					l26.3-26c-10.2-14.8-23.1-27.9-37.9-38.1l-26.3,26.2c-10.4-6.6-21.8-11.5-34-14.3l0.1-37c-8.6-1.6-17.6-2.4-26.8-2.5
					c-9.2,0-18.2,0.8-26.8,2.3l-0.1,37c-12.2,2.8-23.6,7.6-34,14.1l-26.2-26.3c-14.8,10.2-27.9,23.1-38.1,37.9l26.2,26.1
					c-6.6,10.4-11.5,22-14.3,34.2l-37-0.1c-1.6,8.6-2.4,17.6-2.5,26.8c0,9.2,0.8,18.2,2.3,26.8l37,0.1c2.8,12.2,7.6,23.6,14.1,34
					l-26.3,26.2c10.2,14.8,22.9,27.7,37.7,38.1l26.3-26.2c10.4,6.6,22,11.5,34.2,14.3l-0.1,37c8.6,1.6,17.6,2.4,26.8,2.5
					c9.2,0,18.2-0.8,26.8-2.3l0.1-37c12.2-2.8,23.8-7.6,34.2-14.1l26.2,26.3c14.8-10.4,27.7-23.1,37.9-37.9l-26.2-26.3
					c6.6-10.4,11.5-21.8,14.3-34L1351.2,903.6z M1201,943.3c-36.9-0.1-66.8-30.1-66.7-67c0.1-36.9,30.1-66.8,67-66.7
					s66.8,30.1,66.7,67C1267.9,913.5,1238,943.3,1201,943.3z"/>
			</g>
			<g>
				<defs>
					
						<filter id="Adobe_OpacityMaskFilter_00000121276873116328963700000002330598316506128794_" filterUnits="userSpaceOnUse" x="1369.3" y="845.4" width="764.8" height="662">
						<feFlood  style="flood-color:white;flood-opacity:1" result="back"/>
						<feBlend  in="SourceGraphic" in2="back" mode="normal"/>
					</filter>
				</defs>
				
					<mask maskUnits="userSpaceOnUse" x="1369.3" y="845.4" width="764.8" height="662" id="SVGID_00000060020433872276756520000013395998409450305976_">
					<g style="filter:url(#Adobe_OpacityMaskFilter_00000121276873116328963700000002330598316506128794_);">
						<defs>
							
								<filter id="Adobe_OpacityMaskFilter_00000132051153586070229340000017925318610178146436_" filterUnits="userSpaceOnUse" x="1369.3" y="845.4" width="764.8" height="662">
								<feFlood  style="flood-color:white;flood-opacity:1" result="back"/>
								<feBlend  in="SourceGraphic" in2="back" mode="normal"/>
							</filter>
						</defs>
						
							<mask maskUnits="userSpaceOnUse" x="1369.3" y="845.4" width="764.8" height="662" id="SVGID_00000060020433872276756520000013395998409450305976_">
							<g style="filter:url(#Adobe_OpacityMaskFilter_00000132051153586070229340000017925318610178146436_);">
							</g>
						</mask>
						
							<linearGradient id="SVGID_00000154411624551820340310000005865714433915304337_" gradientUnits="userSpaceOnUse" x1="1369.2992" y1="1176.4578" x2="2134.1372" y2="1176.4578">
							<stop  offset="0" style="stop-color:#FFFFFF"/>
							<stop  offset="1" style="stop-color:#1A1A1A"/>
						</linearGradient>
						
							<path style="mask:url(#SVGID_00000060020433872276756520000013395998409450305976_);fill:url(#SVGID_00000154411624551820340310000005865714433915304337_);" d="
							M2134.1,876.6v599.8c0,17.1-14,31.1-31.3,31.1h-702.5c-17.1,0-31.1-14-31.1-31.1V876.6c0-17.2,14-31.1,31.1-31.1h702.5
							C2120.1,845.4,2134.1,859.3,2134.1,876.6z"/>
					</g>
				</mask>
				
					<linearGradient id="SVGID_00000171692543719228562820000013767543477525098120_" gradientUnits="userSpaceOnUse" x1="1369.2992" y1="1176.4578" x2="2134.1372" y2="1176.4578">
					<stop  offset="0" style="stop-color:#0C5C93"/>
					<stop  offset="1" style="stop-color:#0C5C93"/>
				</linearGradient>
				<path style="opacity:0.25;fill:url(#SVGID_00000171692543719228562820000013767543477525098120_);" d="M2134.1,876.6v599.8
					c0,17.1-14,31.1-31.3,31.1h-702.5c-17.1,0-31.1-14-31.1-31.1V876.6c0-17.2,14-31.1,31.1-31.1h702.5
					C2120.1,845.4,2134.1,859.3,2134.1,876.6z"/>
				<path class="st61" d="M2163.5,859v599.8c0,17.1-14,31.1-31.3,31.1h-702.5c-17.1,0-31.1-14-31.1-31.1V859
					c0-17.2,14-31.1,31.1-31.1h702.5C2149.4,827.9,2163.5,841.8,2163.5,859z"/>
				
					<linearGradient id="SVGID_00000098923653292002780840000009272813614254630028_" gradientUnits="userSpaceOnUse" x1="1407.5068" y1="897.7261" x2="2134.6338" y2="897.7261">
					<stop  offset="0" style="stop-color:#38ACA8"/>
					<stop  offset="1" style="stop-color:#5F637A"/>
				</linearGradient>
				<path style="fill:url(#SVGID_00000098923653292002780840000009272813614254630028_);" d="M2163.5,859v108.5h-764.8V859
					c0-17.2,14-31.1,31.1-31.1h702.5C2149.4,827.9,2163.5,841.8,2163.5,859z"/>
				<g>
					
						<linearGradient id="SVGID_00000131356866062323057610000014778919690281549215_" gradientUnits="userSpaceOnUse" x1="1634.9496" y1="1395.8889" x2="1510.7959" y2="641.0323">
						<stop  offset="0" style="stop-color:#FFAC06"/>
						<stop  offset="1" style="stop-color:#F87C18"/>
					</linearGradient>
					<path style="fill:url(#SVGID_00000131356866062323057610000014778919690281549215_);" d="M1744.4,1384.3h-285.8
						c-13.6,0-24.7-11-24.7-24.7v-334.9c0-13.6,11-24.7,24.7-24.7h285.8c13.6,0,24.7,11,24.7,24.7v334.9
						C1769,1373.2,1758,1384.3,1744.4,1384.3z"/>
					
						<linearGradient id="SVGID_00000060709618622553453820000005547206915086917036_" gradientUnits="userSpaceOnUse" x1="1986.0367" y1="1336.7521" x2="1861.8796" y2="581.8752">
						<stop  offset="0" style="stop-color:#38ACA8"/>
						<stop  offset="1" style="stop-color:#5F637A"/>
					</linearGradient>
					<path style="fill:url(#SVGID_00000060709618622553453820000005547206915086917036_);" d="M2103.5,1384.3H1821
						c-13.6,0-24.7-11-24.7-24.7v-334.9c0-13.6,11-24.7,24.7-24.7h282.6c13.6,0,24.7,11,24.7,24.7v334.9
						C2128.2,1373.2,2117.2,1384.3,2103.5,1384.3z"/>
				</g>
				<g>
					<g>
						<path class="st61" d="M1642.4,1074.4h-159.2c-0.3,0-0.6-0.3-0.6-0.6v-17.2c0-0.3,0.3-0.6,0.6-0.6h159.2c0.3,0,0.6,0.3,0.6,0.6
							v17.2C1643,1074.2,1642.7,1074.4,1642.4,1074.4z"/>
						<path class="st61" d="M1707.6,1114.6h-224.4c-0.3,0-0.6-0.3-0.6-0.6v-17.2c0-0.3,0.3-0.6,0.6-0.6h224.4c0.3,0,0.6,0.3,0.6,0.6
							v17.2C1708.2,1114.3,1707.9,1114.6,1707.6,1114.6z"/>
						<path class="st61" d="M1707.6,1154.7h-224.4c-0.3,0-0.6-0.3-0.6-0.6v-17.2c0-0.3,0.3-0.6,0.6-0.6h224.4c0.3,0,0.6,0.3,0.6,0.6
							v17.2C1708.2,1154.4,1707.9,1154.7,1707.6,1154.7z"/>
						<path class="st61" d="M1707.6,1194.8h-224.4c-0.3,0-0.6-0.3-0.6-0.6V1177c0-0.3,0.3-0.6,0.6-0.6h224.4c0.3,0,0.6,0.3,0.6,0.6
							v17.2C1708.2,1194.6,1707.9,1194.8,1707.6,1194.8z"/>
						<path class="st61" d="M1707.6,1235h-224.4c-0.3,0-0.6-0.3-0.6-0.6v-17.2c0-0.3,0.3-0.6,0.6-0.6h224.4c0.3,0,0.6,0.3,0.6,0.6
							v17.2C1708.2,1234.7,1707.9,1235,1707.6,1235z"/>
						<path class="st61" d="M1707.6,1275.1h-224.4c-0.3,0-0.6-0.3-0.6-0.6v-17.2c0-0.3,0.3-0.6,0.6-0.6h224.4c0.3,0,0.6,0.3,0.6,0.6
							v17.2C1708.2,1274.9,1707.9,1275.1,1707.6,1275.1z"/>
						<path class="st61" d="M1642.4,1315.3h-159.2c-0.3,0-0.6-0.3-0.6-0.6v-17.2c0-0.3,0.3-0.6,0.6-0.6h159.2c0.3,0,0.6,0.3,0.6,0.6
							v17.2C1643,1315,1642.7,1315.3,1642.4,1315.3z"/>
					</g>
				</g>
				<g>
					<g>
						<path class="st61" d="M1996.6,1074.4h-159.2c-0.3,0-0.6-0.3-0.6-0.6v-17.2c0-0.3,0.3-0.6,0.6-0.6h159.2c0.3,0,0.6,0.3,0.6,0.6
							v17.2C1997.2,1074.2,1996.9,1074.4,1996.6,1074.4z"/>
						<path class="st61" d="M2061.8,1114.6h-224.4c-0.3,0-0.6-0.3-0.6-0.6v-17.2c0-0.3,0.3-0.6,0.6-0.6h224.4c0.3,0,0.6,0.3,0.6,0.6
							v17.2C2062.4,1114.3,2062.1,1114.6,2061.8,1114.6z"/>
						<path class="st61" d="M2061.8,1154.7h-224.4c-0.3,0-0.6-0.3-0.6-0.6v-17.2c0-0.3,0.3-0.6,0.6-0.6h224.4c0.3,0,0.6,0.3,0.6,0.6
							v17.2C2062.4,1154.4,2062.1,1154.7,2061.8,1154.7z"/>
						<path class="st61" d="M2061.8,1194.8h-224.4c-0.3,0-0.6-0.3-0.6-0.6V1177c0-0.3,0.3-0.6,0.6-0.6h224.4c0.3,0,0.6,0.3,0.6,0.6
							v17.2C2062.4,1194.6,2062.1,1194.8,2061.8,1194.8z"/>
						<path class="st61" d="M2061.8,1235h-224.4c-0.3,0-0.6-0.3-0.6-0.6v-17.2c0-0.3,0.3-0.6,0.6-0.6h224.4c0.3,0,0.6,0.3,0.6,0.6
							v17.2C2062.4,1234.7,2062.1,1235,2061.8,1235z"/>
						<path class="st61" d="M2061.8,1275.1h-224.4c-0.3,0-0.6-0.3-0.6-0.6v-17.2c0-0.3,0.3-0.6,0.6-0.6h224.4c0.3,0,0.6,0.3,0.6,0.6
							v17.2C2062.4,1274.9,2062.1,1275.1,2061.8,1275.1z"/>
						<path class="st61" d="M1996.6,1315.3h-159.2c-0.3,0-0.6-0.3-0.6-0.6v-17.2c0-0.3,0.3-0.6,0.6-0.6h159.2c0.3,0,0.6,0.3,0.6,0.6
							v17.2C1997.2,1315,1996.9,1315.3,1996.6,1315.3z"/>
					</g>
				</g>
				
					<linearGradient id="SVGID_00000175320005211226740470000009311841669854834325_" gradientUnits="userSpaceOnUse" x1="1438.6302" y1="894.9695" x2="1513.261" y2="894.9695">
					<stop  offset="0" style="stop-color:#FFAC06"/>
					<stop  offset="1" style="stop-color:#F87C18"/>
				</linearGradient>
				<circle style="fill:url(#SVGID_00000175320005211226740470000009311841669854834325_);" cx="1475.9" cy="895" r="37.3"/>
				<path class="st61" d="M1835.6,890.8H1549c-0.7,0-1.2-0.5-1.2-1.2v-30.8c0-0.7,0.5-1.2,1.2-1.2l286.6,0c0.7,0,1.2,0.5,1.2,1.2
					v30.8C1836.8,890.3,1836.3,890.8,1835.6,890.8z"/>
				<path class="st61" d="M1707.6,927.6h-159.2c-0.3,0-0.6-0.3-0.6-0.6v-17.2c0-0.3,0.3-0.6,0.6-0.6h159.2c0.3,0,0.6,0.3,0.6,0.6
					V927C1708.2,927.3,1707.9,927.6,1707.6,927.6z"/>
			</g>
			<g>
				<g>
					<path class="st61" d="M989.4,1153.2H884.1c-0.3,0-0.6-0.3-0.6-0.6v-11.1c0-0.3,0.3-0.6,0.6-0.6h105.4c0.3,0,0.6,0.3,0.6,0.6
						v11.1C990,1153,989.7,1153.2,989.4,1153.2z"/>
					<path class="st61" d="M1322.3,1179.9H884.1c-0.3,0-0.6-0.3-0.6-0.6v-11.1c0-0.3,0.3-0.6,0.6-0.6h438.2c0.3,0,0.6,0.3,0.6,0.6
						v11.1C1322.9,1179.6,1322.6,1179.9,1322.3,1179.9z"/>
					<path class="st61" d="M1322.3,1206.6H884.1c-0.3,0-0.6-0.3-0.6-0.6v-11.1c0-0.3,0.3-0.6,0.6-0.6h438.2c0.3,0,0.6,0.3,0.6,0.6
						v11.1C1322.9,1206.3,1322.6,1206.6,1322.3,1206.6z"/>
					<path class="st61" d="M1322.3,1233.2H884.1c-0.3,0-0.6-0.3-0.6-0.6v-11.1c0-0.3,0.3-0.6,0.6-0.6h438.2c0.3,0,0.6,0.3,0.6,0.6
						v11.1C1322.9,1233,1322.6,1233.2,1322.3,1233.2z"/>
				</g>
			</g>
			<g>
				<g>
					<path class="st66" d="M1501.8,738.6h-92.9c-0.3,0-0.6-0.3-0.6-0.6v-10.3c0-0.3,0.3-0.6,0.6-0.6h92.9c0.3,0,0.6,0.3,0.6,0.6V738
						C1502.3,738.4,1502.1,738.6,1501.8,738.6z"/>
					<path class="st66" d="M1795.7,763.5h-386.9c-0.3,0-0.6-0.3-0.6-0.6v-10.3c0-0.3,0.3-0.6,0.6-0.6h386.9c0.3,0,0.6,0.3,0.6,0.6
						v10.3C1796.3,763.3,1796.1,763.5,1795.7,763.5z"/>
					<path class="st66" d="M1795.7,788.4h-386.9c-0.3,0-0.6-0.3-0.6-0.6v-10.3c0-0.3,0.3-0.6,0.6-0.6h386.9c0.3,0,0.6,0.3,0.6,0.6
						v10.3C1796.3,788.1,1796.1,788.4,1795.7,788.4z"/>
					<path class="st66" d="M1795.7,813.3h-386.9c-0.3,0-0.6-0.3-0.6-0.6v-10.3c0-0.3,0.3-0.6,0.6-0.6h386.9c0.3,0,0.6,0.3,0.6,0.6
						v10.3C1796.3,813,1796.1,813.3,1795.7,813.3z"/>
				</g>
			</g>
		</g>
		
			<linearGradient id="SVGID_00000067945564100260968130000003665315631643229611_" gradientUnits="userSpaceOnUse" x1="1248.0516" y1="659.7053" x2="1644.3018" y2="659.7053">
			<stop  offset="0" style="stop-color:#F6F2ED"/>
			<stop  offset="0.9953" style="stop-color:#D3D1CD"/>
		</linearGradient>
		<path style="fill:url(#SVGID_00000067945564100260968130000003665315631643229611_);" d="M1525.8,568.8l3.7-36.1
			c1.4-13.6,8.4-26,19.3-34.1c0,0,48.5-17.9,60.6-2.8h0l-45.4,34.5l-3.2,34.8l36.3,7.3L1642,539l0,0c10.5,11.7-18.7,49.9-18.7,49.9
			c-16.6,12.1-37,17.8-57.4,15.9l-11.2-1l-164.9,139.2v31.3c0,11.1-25.9,70.6-95.5,51.6l43.4-35l-1.9-35.9l-38.7-11.9l-44.8,29.7
			l0,0c-18.3-30.2,29.1-66.3,29.1-66.3c13.2-10,32.6-12.7,48.7-9.3l29.2,6.1L1525.8,568.8z"/>
		<g>
			
				<linearGradient id="SVGID_00000015341297969738557300000002745309370925271430_" gradientUnits="userSpaceOnUse" x1="1400.2366" y1="438.0526" x2="1122.8898" y2="708.1639">
				<stop  offset="0" style="stop-color:#FFAC06"/>
				<stop  offset="1" style="stop-color:#F87C18"/>
			</linearGradient>
			<path style="fill:url(#SVGID_00000015341297969738557300000002745309370925271430_);" d="M1131.2,442.8c0,0,80.8-41.7,150.4-33.6
				c41.4,4.8,98.8,33.3,138.4,55.7c28.9,16.3,49,44.6,55,77.2l11.6,62.7c0,0-4.9,17.8-18.6,20.2c-13.8,2.4-27.5,0-27.5,0
				s-2.5-89.6-23.7-96.9c-21.2-7.3-62.1-7.2-62.1-7.2v22.8h-202.4l-21.1,21.8l42.1,121.7c0,0-8.9,11.5-25.9,16.4
				c-17,4.9-24.3,4.9-24.3,4.9s-51.6-140.1-52.9-154.6S1131.2,442.8,1131.2,442.8z"/>
			<g>
				
					<linearGradient id="SVGID_00000083791235963533129020000015115457551321474955_" gradientUnits="userSpaceOnUse" x1="816.006" y1="301.2879" x2="721.2855" y2="393.5374" gradientTransform="matrix(-1 0 0 1 2020.6544 0)">
					<stop  offset="0" style="stop-color:#FFD9D9"/>
					<stop  offset="1" style="stop-color:#EFB4B4"/>
				</linearGradient>
				<path style="fill:url(#SVGID_00000083791235963533129020000015115457551321474955_);" d="M1192.9,336c0,0-4.9-13.3-11.4-10.2
					s11.7,30.9,14.2,34.9c2.5,4,5.9,55.3,54.4,59c48.5,3.7,54.1-52.5,56.5-56.8c2.5-4.3,16.1-34.6,9.3-38.9
					c-6.8-4.3-10.2,9-11.7,8.7c-1.5-0.3,0.3-36.8-19.2-42.9c-19.5-6.2-47.6-0.9-51.3,0c-3.7,0.9-41.7,24.7-41.7,24.7L1192.9,336z"/>
				<path class="st70" d="M1289.4,410.8v19.1c0,0-15,13-37.8,10.9c-22.8-2.1-34.2-12.4-34.2-12.4V398L1289.4,410.8z"/>
				
					<linearGradient id="SVGID_00000085935289586236180800000005154045438887518381_" gradientUnits="userSpaceOnUse" x1="831.1064" y1="270.8521" x2="709.114" y2="389.6619" gradientTransform="matrix(-1 0 0 1 2020.6544 0)">
					<stop  offset="0" style="stop-color:#587082"/>
					<stop  offset="1" style="stop-color:#1A1E28"/>
				</linearGradient>
				<path style="fill:url(#SVGID_00000085935289586236180800000005154045438887518381_);" d="M1293.9,300.4c0,0-11.1,24.1-50.1,25.6
					c-38.9,1.5-46.3-5.9-46.3-5.9s1.5,23.8,1.5,29c0,5.3,7.4,36.5,16.7,38.6c9.3,2.2,4.8-11.6,16.8-13.7c12-2.2,43.1-3.9,44.4,1.1
					s3.9,11.2,12.5,11.2s14-58.8,13.4-62.9c-0.5-4.2,2.8-5.7,2.8-5.7l2.8,5.6c0,0-3.6,41.6-2.4,48.6c1.2,7.1-11.1,55.4-46.5,54.6
					c-36.1-0.9-45.3-12.6-53.4-30.9c-8-18.2-12.6-29.4-12.5-38c0.1-8.6-1.6-23.4-1.6-23.4l-6.8-8.4c0,0-10.7-52.1,20.2-69.1
					c30.9-17,67-7.5,80.3-2.6c13.3,4.9,28.4,20.4,30.3,38c1.9,17.6-0.3,31.8-0.3,31.8l-8.7,3.7c0,0-6.1-5.3-8.3-13
					C1296.7,306.9,1293.9,300.4,1293.9,300.4z"/>
			</g>
			<path class="st72" d="M1152.2,543.6c0,0,12.1-25.7,12.8-53.6c0.7-27.9-21.3-49-21.3-49s26.6,19.7,28.6,41.6c2,22-11.3,61-11.3,61
				H1152.2z"/>
			<path class="st72" d="M1354.6,520.8c0,0-3.7-62.1-10.6-78.4c-7-16.3-9.4-20.3-9.4-20.3s7.6,46.2,10,70.2
				c2.4,24,2.1,51.3,2.1,51.3h8V520.8z"/>
		</g>
		
			<linearGradient id="SVGID_00000115479324862816203640000007532620613830482605_" gradientUnits="userSpaceOnUse" x1="1436.4144" y1="642.0682" x2="1503.8608" y2="642.0682">
			<stop  offset="0" style="stop-color:#FFD9D9"/>
			<stop  offset="1" style="stop-color:#EFB4B4"/>
		</linearGradient>
		<path style="fill:url(#SVGID_00000115479324862816203640000007532620613830482605_);" d="M1442.7,625.3c0,0-6.8,12.2-6.2,13.7
			c0.5,1.5,11.8-3.3,15.4,0c3.5,3.3,12.9,38.1,20.7,34.2c7.8-3.9,32.8-18.6,31.3-29.4c-1.5-10.7-19.5-33.2-19.5-33.2
			S1464.2,626.7,1442.7,625.3z"/>
		
			<linearGradient id="SVGID_00000106136394095882314810000008485810642224828581_" gradientUnits="userSpaceOnUse" x1="1131.0415" y1="740.553" x2="1200.7678" y2="740.553">
			<stop  offset="0" style="stop-color:#FFD9D9"/>
			<stop  offset="1" style="stop-color:#EFB4B4"/>
		</linearGradient>
		<path style="fill:url(#SVGID_00000106136394095882314810000008485810642224828581_);" d="M1170.1,690.5c0,0,23.8,9.8,26.5,20
			c2.7,10.2,4.2,27,4.2,27s-6.3,8-11.3-3.4c-5-11.4-5-11.4-5-11.4s-7.6,18.6-4.6,37.2c3,18.6-3.8,31.1-15.2,30.7
			c-11.4-0.4-25.4-22.6-28.1-43.3c-2.7-20.7-5.6-40-5.6-40S1159.6,698.1,1170.1,690.5z"/>
		
			<linearGradient id="SVGID_00000010284694414165453490000016100806283484891303_" gradientUnits="userSpaceOnUse" x1="658.0123" y1="764.4994" x2="780.3158" y2="764.4994">
			<stop  offset="0" style="stop-color:#587082"/>
			<stop  offset="1" style="stop-color:#1A1E28"/>
		</linearGradient>
		<path style="fill:url(#SVGID_00000010284694414165453490000016100806283484891303_);" d="M780.3,721.9c0,17.2-1.8,24.2-17.2,26.8
			c-15.3,2.6-9.4,16.9-13.3,22.1c-3.9,5.2,3.6,21.1-1.3,21.1c-4.9,0-5.5-24.4-16.1-23.7c-10.7,0.8-7.3,16.6-2.9,23.7
			c4.4,7-1.6,21.6-25.5,25.2c-23.9,3.6-36.9-29.6-44.2-43.7c-7.3-14,8.6-25.2,8.6-25.2s-22.6-28.1,29.9-34.8
			C750.9,706.6,780.3,721.9,780.3,721.9z"/>
		
			<linearGradient id="SVGID_00000079488104580812012830000016113541026458350730_" gradientUnits="userSpaceOnUse" x1="613.0163" y1="979.4623" x2="983.2867" y2="979.4623">
			<stop  offset="0" style="stop-color:#FFAC06"/>
			<stop  offset="1" style="stop-color:#F87C18"/>
		</linearGradient>
		<path style="fill:url(#SVGID_00000079488104580812012830000016113541026458350730_);" d="M680.4,840.4c0,0,73.1,4.6,80,11.4
			c6.9,6.9,0,9.1,8,12c8,2.9,17.7,7.4,24.6,14.3c6.9,6.9,79.4,103.4,86.2,103.4c6.9,0,89.1-7.4,89.1-7.4s12.6,4,14.3,16.6
			c1.7,12.6,0,21.7,0,21.7s-93.1,17.7-113.1,15.4c-20-2.3-92.5-59.4-92.5-59.4V1094c0,0-21.9,25.1-88,24.6s-75.9-16-75.9-16
			s32-206.5,42.3-229.8C665.6,849.5,680.4,840.4,680.4,840.4z"/>
		
			<linearGradient id="SVGID_00000170247968863988500190000005634517392099454137_" gradientUnits="userSpaceOnUse" x1="975.1032" y1="981.2308" x2="1054.3496" y2="981.2308">
			<stop  offset="0" style="stop-color:#FFD9D9"/>
			<stop  offset="1" style="stop-color:#EFB4B4"/>
		</linearGradient>
		<path style="fill:url(#SVGID_00000170247968863988500190000005634517392099454137_);" d="M975.1,977.9c0,0,5.2-18.4,18-20.3
			c12.7-1.9,24.3-2.5,24.3-2.5s2.1,6-7.8,7.6c-9.8,1.6-10.1,9.2,3.2,7c13.3-2.2,38.1-11.7,41.2-4.8c3.2,7-14.3,22.8-27.9,30.3
			c-13.6,7.5-43,12.3-43,12.3S983.1,986.5,975.1,977.9z"/>
		<g>
			
				<linearGradient id="SVGID_00000081643394250091325660000008338361261795520397_" gradientUnits="userSpaceOnUse" x1="2108.1362" y1="1176.1487" x2="2231.6309" y2="1176.1487">
				<stop  offset="0" style="stop-color:#587082"/>
				<stop  offset="1" style="stop-color:#1A1E28"/>
			</linearGradient>
			<polygon style="fill:url(#SVGID_00000081643394250091325660000008338361261795520397_);" points="2164.4,1292.4 2108.1,1059.9 
				2201.1,1069.6 2231.6,1279.5 			"/>
			<g>
				
					<linearGradient id="SVGID_00000056394863340065757350000017311972377899823253_" gradientUnits="userSpaceOnUse" x1="2124.4565" y1="1330.0409" x2="2246.2654" y2="1330.0409">
					<stop  offset="0" style="stop-color:#587082"/>
					<stop  offset="1" style="stop-color:#1A1E28"/>
				</linearGradient>
				<path style="fill:url(#SVGID_00000056394863340065757350000017311972377899823253_);" d="M2163.9,1297.3c0,0,0.3,8.6-5.1,12.2
					c-5.4,3.5-39.7,44.2-33.6,66.3s47,2.8,53.1,0c6.1-2.8,67.1-53.5,67.1-53.5s3.7-15.3-4-29.4c-7.7-14.1-14.5-16.8-14.5-16.8
					S2187,1263.8,2163.9,1297.3z"/>
				<path class="st61" d="M2238.8,1308.9c-15.6-14.6-81.3,32.7-100.2,55.4c-18.9,22.7-1,29.5,37.5,12.5
					C2214.5,1359.8,2263.2,1331.6,2238.8,1308.9z"/>
			</g>
			<g>
				
					<linearGradient id="SVGID_00000165214891306640898950000015658233034206850962_" gradientUnits="userSpaceOnUse" x1="2477.0947" y1="1505.7205" x2="2686.4226" y2="1505.7205">
					<stop  offset="0" style="stop-color:#587082"/>
					<stop  offset="1" style="stop-color:#1A1E28"/>
				</linearGradient>
				<polygon style="fill:url(#SVGID_00000165214891306640898950000015658233034206850962_);" points="2489.8,1125.8 2686.4,1885.6 
					2669.7,1885.6 2477.1,1125.8 				"/>
				
					<linearGradient id="SVGID_00000039101608697238665280000004935817384170460038_" gradientUnits="userSpaceOnUse" x1="2237.4624" y1="1035.6709" x2="2026.1047" y2="1863.3629">
					<stop  offset="0" style="stop-color:#587082"/>
					<stop  offset="1" style="stop-color:#1A1E28"/>
				</linearGradient>
				<path style="fill:url(#SVGID_00000039101608697238665280000004935817384170460038_);" d="M2303.9,1125.8l-45.6,174.8h-179.9
					l45.6-174.8h-27l-192.9,759.5h27l49.7-210.1h179.9l-49.7,210.1h27l192.9-759.5H2303.9z M2253.5,1319l-41.6,159.8H2032
					l41.6-159.8H2253.5z M1985.6,1656.9l41.6-159.8h179.9l-41.6,159.8H1985.6z"/>
				
					<linearGradient id="SVGID_00000111178043344469008260000016065379954887312776_" gradientUnits="userSpaceOnUse" x1="2282.9248" y1="1505.7207" x2="2713.3916" y2="1505.7207">
					<stop  offset="0" style="stop-color:#F6F2ED"/>
					<stop  offset="0.9953" style="stop-color:#D3D1CD"/>
				</linearGradient>
				<path style="fill:url(#SVGID_00000111178043344469008260000016065379954887312776_);" d="M2686.4,1885.6h27l-196.6-759.8h-27
					l45.6,174.8h-179.9l-45.6-174.8h-27l196.6,759.8h27l-53.5-210.4H2633L2686.4,1885.6z M2540.1,1319l41.6,159.8h-179.9
					l-41.6-159.8H2540.1z M2448.3,1656.9l-41.6-159.8h179.9l41.6,159.8H2448.3z"/>
				
					<linearGradient id="SVGID_00000175299207871590007500000001204087311766338725_" gradientUnits="userSpaceOnUse" x1="2096.9966" y1="1108.0245" x2="2309.3066" y2="1108.0245">
					<stop  offset="0" style="stop-color:#38ACA8"/>
					<stop  offset="1" style="stop-color:#5F637A"/>
				</linearGradient>
				
					<rect x="2097" y="1090.2" style="fill:url(#SVGID_00000175299207871590007500000001204087311766338725_);" width="212.3" height="35.6"/>
				
					<linearGradient id="SVGID_00000114759530489008592260000017140340691978877843_" gradientUnits="userSpaceOnUse" x1="2521.6169" y1="1108.0245" x2="2309.3066" y2="1108.0245">
					<stop  offset="0" style="stop-color:#F6F2ED"/>
					<stop  offset="0.9953" style="stop-color:#D3D1CD"/>
				</linearGradient>
				
					<rect x="2309.3" y="1090.2" style="fill:url(#SVGID_00000114759530489008592260000017140340691978877843_);" width="212.3" height="35.6"/>
				
					<linearGradient id="SVGID_00000012467630811635155970000000852206840312384395_" gradientUnits="userSpaceOnUse" x1="1904.1017" y1="1505.8746" x2="2479.5481" y2="1505.8746">
					<stop  offset="0" style="stop-color:#38ACA8"/>
					<stop  offset="1" style="stop-color:#5F637A"/>
				</linearGradient>
				<polygon style="fill:url(#SVGID_00000012467630811635155970000000852206840312384395_);" points="1904.1,1885.3 2097,1125.8 
					2282.9,1125.8 2479.5,1885.6 2462.8,1885.6 2270.1,1141.3 2106.7,1141.3 1916.4,1885.9 				"/>
			</g>
			<g>
				<g>
					
						<linearGradient id="SVGID_00000169517985995234648950000008850696279204975799_" gradientUnits="userSpaceOnUse" x1="1940.5337" y1="779.7076" x2="2341.1851" y2="779.7076">
						<stop  offset="0" style="stop-color:#38ACA8"/>
						<stop  offset="1" style="stop-color:#5F637A"/>
					</linearGradient>
					<path style="fill:url(#SVGID_00000169517985995234648950000008850696279204975799_);" d="M2341.2,622.6v314.2
						c0,9-7.4,16.3-16.4,16.3h-368c-9,0-16.3-7.4-16.3-16.3V622.6c0-9,7.4-16.3,16.3-16.3h368
						C2333.8,606.3,2341.2,613.6,2341.2,622.6z"/>
					
						<linearGradient id="SVGID_00000141415807789323856590000013015458310874434992_" gradientUnits="userSpaceOnUse" x1="2341.1851" y1="642.8821" x2="1971.5217" y2="642.8821">
						<stop  offset="0" style="stop-color:#38ACA8"/>
						<stop  offset="1" style="stop-color:#5F637A"/>
					</linearGradient>
					<path style="fill:url(#SVGID_00000141415807789323856590000013015458310874434992_);" d="M2341.2,622.6v56.8h-400.7v-56.8
						c0-9,7.4-16.3,16.3-16.3h368C2333.8,606.3,2341.2,613.6,2341.2,622.6z"/>
					<g>
						<rect x="1959" y="696.5" class="st49" width="175.6" height="201.3"/>
						<rect x="2148.9" y="696.5" class="st49" width="173.9" height="201.3"/>
					</g>
					<g>
						<path class="st66" d="M2068,735.4h-82.9c-0.3,0-0.6-0.3-0.6-0.6v-8.5c0-0.3,0.3-0.6,0.6-0.6h82.9c0.3,0,0.6,0.3,0.6,0.6v8.5
							C2068.5,735.2,2068.3,735.4,2068,735.4z"/>
						<path class="st66" d="M2102.1,756.5h-117c-0.3,0-0.6-0.3-0.6-0.6v-8.5c0-0.3,0.3-0.6,0.6-0.6h117c0.3,0,0.6,0.3,0.6,0.6v8.5
							C2102.7,756.2,2102.4,756.5,2102.1,756.5z"/>
						<path class="st66" d="M2102.1,777.5h-117c-0.3,0-0.6-0.3-0.6-0.6v-8.5c0-0.3,0.3-0.6,0.6-0.6h117c0.3,0,0.6,0.3,0.6,0.6v8.5
							C2102.7,777.2,2102.4,777.5,2102.1,777.5z"/>
						<path class="st66" d="M2102.1,798.5h-117c-0.3,0-0.6-0.3-0.6-0.6v-8.5c0-0.3,0.3-0.6,0.6-0.6h117c0.3,0,0.6,0.3,0.6,0.6v8.5
							C2102.7,798.3,2102.4,798.5,2102.1,798.5z"/>
						<path class="st66" d="M2102.1,819.6h-117c-0.3,0-0.6-0.3-0.6-0.6v-8.5c0-0.3,0.3-0.6,0.6-0.6h117c0.3,0,0.6,0.3,0.6,0.6v8.5
							C2102.7,819.3,2102.4,819.6,2102.1,819.6z"/>
						<path class="st66" d="M2102.1,840.6h-117c-0.3,0-0.6-0.3-0.6-0.6v-8.5c0-0.3,0.3-0.6,0.6-0.6h117c0.3,0,0.6,0.3,0.6,0.6v8.5
							C2102.7,840.3,2102.4,840.6,2102.1,840.6z"/>
						<path class="st66" d="M2068,861.6h-82.9c-0.3,0-0.6-0.3-0.6-0.6v-8.5c0-0.3,0.3-0.6,0.6-0.6h82.9c0.3,0,0.6,0.3,0.6,0.6v8.5
							C2068.5,861.4,2068.3,861.6,2068,861.6z"/>
					</g>
					<g>
						<path class="st66" d="M2253.5,735.4h-82.9c-0.3,0-0.6-0.3-0.6-0.6v-8.5c0-0.3,0.3-0.6,0.6-0.6h82.9c0.3,0,0.6,0.3,0.6,0.6v8.5
							C2254.1,735.2,2253.8,735.4,2253.5,735.4z"/>
						<path class="st66" d="M2287.7,756.5h-117c-0.3,0-0.6-0.3-0.6-0.6v-8.5c0-0.3,0.3-0.6,0.6-0.6h117c0.3,0,0.6,0.3,0.6,0.6v8.5
							C2288.2,756.2,2288,756.5,2287.7,756.5z"/>
						<path class="st66" d="M2287.7,777.5h-117c-0.3,0-0.6-0.3-0.6-0.6v-8.5c0-0.3,0.3-0.6,0.6-0.6h117c0.3,0,0.6,0.3,0.6,0.6v8.5
							C2288.2,777.2,2288,777.5,2287.7,777.5z"/>
						<path class="st66" d="M2287.7,798.5h-117c-0.3,0-0.6-0.3-0.6-0.6v-8.5c0-0.3,0.3-0.6,0.6-0.6h117c0.3,0,0.6,0.3,0.6,0.6v8.5
							C2288.2,798.3,2288,798.5,2287.7,798.5z"/>
						<path class="st66" d="M2287.7,819.6h-117c-0.3,0-0.6-0.3-0.6-0.6v-8.5c0-0.3,0.3-0.6,0.6-0.6h117c0.3,0,0.6,0.3,0.6,0.6v8.5
							C2288.2,819.3,2288,819.6,2287.7,819.6z"/>
						<path class="st66" d="M2287.7,840.6h-117c-0.3,0-0.6-0.3-0.6-0.6v-8.5c0-0.3,0.3-0.6,0.6-0.6h117c0.3,0,0.6,0.3,0.6,0.6v8.5
							C2288.2,840.3,2288,840.6,2287.7,840.6z"/>
						<path class="st66" d="M2253.5,861.6h-82.9c-0.3,0-0.6-0.3-0.6-0.6v-8.5c0-0.3,0.3-0.6,0.6-0.6h82.9c0.3,0,0.6,0.3,0.6,0.6v8.5
							C2254.1,861.4,2253.8,861.6,2253.5,861.6z"/>
					</g>
					<circle class="st61" cx="1981" cy="641.4" r="19.5"/>
					<path class="st61" d="M2168.9,639.2h-149c-0.7,0-1.2-0.5-1.2-1.2v-15c0-0.7,0.5-1.2,1.2-1.2h149c0.7,0,1.2,0.5,1.2,1.2v15
						C2170.1,638.7,2169.5,639.2,2168.9,639.2z"/>
					<path class="st61" d="M2102.1,658.5h-82.9c-0.3,0-0.6-0.3-0.6-0.6v-8.5c0-0.3,0.3-0.6,0.6-0.6h82.9c0.3,0,0.6,0.3,0.6,0.6v8.5
						C2102.7,658.3,2102.4,658.5,2102.1,658.5z"/>
				</g>
				
					<linearGradient id="SVGID_00000042723122678533425540000016391890013914927769_" gradientUnits="userSpaceOnUse" x1="1950.5885" y1="1163.873" x2="2331.1301" y2="1163.873">
					<stop  offset="0" style="stop-color:#587082"/>
					<stop  offset="1" style="stop-color:#1A1E28"/>
				</linearGradient>
				<path style="fill:url(#SVGID_00000042723122678533425540000016391890013914927769_);" d="M2145.3,990.3
					c0,0-166.5,27.1-186.4,41.6c-20,14.5,1.3,107.6,10.8,168.7c9.5,61.1,13.1,136.7,13.1,136.7s14.5-19.4,38.8-20.4
					c24.2-1,24.2-1,24.2-1s-9.2-227.9,8.1-226.9c17.3,1,151.3,16.5,229.8-2.9s35.9-93.9,35.9-93.9S2217,1013.6,2145.3,990.3z"/>
				
					<linearGradient id="SVGID_00000027577624156646786430000005419956779760441506_" gradientUnits="userSpaceOnUse" x1="1941.9071" y1="948.1939" x2="2150.354" y2="948.1939">
					<stop  offset="0" style="stop-color:#FFD9D9"/>
					<stop  offset="1" style="stop-color:#EFB4B4"/>
				</linearGradient>
				<path style="fill:url(#SVGID_00000027577624156646786430000005419956779760441506_);" d="M2097.7,946c0,0-116.5-1.4-128-13.5
					c-11.5-12.1,0.6-32.7-13.8-34.5c-14.3-1.7,1.9,37.7-5.3,35.8c-7.3-1.9-26.8,22.4,35.7,42.1c62.5,19.7,130.8,25.9,139.9,21
					c9.1-4.8,24.1-42.1,24.1-42.1S2131.6,963,2097.7,946z"/>
				
					<linearGradient id="SVGID_00000070819333260195404510000011686934606068381611_" gradientUnits="userSpaceOnUse" x1="2168.157" y1="665.9937" x2="2226.0569" y2="665.9937">
					<stop  offset="0" style="stop-color:#FFD9D9"/>
					<stop  offset="1" style="stop-color:#EFB4B4"/>
				</linearGradient>
				<path style="fill:url(#SVGID_00000070819333260195404510000011686934606068381611_);" d="M2180.3,610.8c0,0-15.7,18.9-12.3,23.6
					c3.4,4.7,6,8.3,4.3,12.2c-1.8,3.9-5.8,14.1-3.7,22.9c2.1,8.8,5.5,33.3,11.7,34.6c6.2,1.3,10.4-2.6,14.3,1.3
					c3.9,3.9,6,15.9,6,15.9s13.3-2.6,33.5-4.2c20.3-1.6,30.4-3.1,30.4-3.1s-10.1-27.8-9.1-36.1c1-8.3-11.4-48.4-27.6-58.8
					C2211.8,608.7,2180.3,610.8,2180.3,610.8z"/>
				<path class="st61" d="M2337,739.7c-15.9-5.5-64.3-17.2-72.4-22.9c-8-5.6-53.4,0.6-62.1,4.1c-8.7,3.5-6,9.9-18.1,14.1
					c-12.1,4.2-50.4,4-62.5,23s-27.6,177.1-27.6,177.1s2.1,17,27.6,22c25.5,5,28.4-5,28.4-5v41.1c0,0,20.3,18.1,83.3,15.3
					c63-2.9,85.9-16.9,85.9-16.9s-2.7-41.5,5.4-45.7c8-4.2,29.1,3,33.1-26.6S2350.2,744.3,2337,739.7z"/>
				
					<linearGradient id="SVGID_00000057112855158306775430000000440609489865140651_" gradientUnits="userSpaceOnUse" x1="2162.21" y1="672.5529" x2="2372.7466" y2="672.5529">
					<stop  offset="0" style="stop-color:#587082"/>
					<stop  offset="1" style="stop-color:#1A1E28"/>
				</linearGradient>
				<path style="fill:url(#SVGID_00000057112855158306775430000000440609489865140651_);" d="M2167,597.3
					c-11.8,17.9-2.4,43,33.7,45.5c36.2,2.5,12.3,20.1,14.4,38.1c2.1,18,23.5,23.3,15.4,39.6s-10.5,52.3,49.5,49.4
					c59.9-2.9,95.4-26.9,92.5-58.3c-2.9-31.3-72.4-20.8-71.9-58.7c0.5-37.9-0.5-76-62.3-77.8C2176.5,573.4,2173.3,587.8,2167,597.3z
					"/>
				<path class="st92" d="M2150.4,952.2c0,0,19.7-105.6,19.7-142.3s0-36.6,0-36.6s13.2,31.9,6.3,62.2
					c-6.9,30.3-14.2,164.2-14.2,164.2l-11.9-6.4V952.2z"/>
				<path class="st92" d="M2321.1,953.1c0,0,3.7-104.3,1.5-131.1c-2.2-26.8-9.8-33.1-9.8-33.1s2.2,21.8,2.2,46.9
					c0,25.1-2.2,161.1-2.2,161.1l6.8-5.2L2321.1,953.1z"/>
				<g>
					
						<linearGradient id="SVGID_00000076583930776794071220000009613347787223130009_" gradientUnits="userSpaceOnUse" x1="1943.2845" y1="1370.0984" x2="2065.0933" y2="1370.0984">
						<stop  offset="0" style="stop-color:#587082"/>
						<stop  offset="1" style="stop-color:#1A1E28"/>
					</linearGradient>
					<path style="fill:url(#SVGID_00000076583930776794071220000009613347787223130009_);" d="M1982.7,1337.4c0,0,0.3,8.6-5.1,12.2
						c-5.4,3.5-39.7,44.2-33.6,66.3c6.1,22.1,47,2.8,53.1,0c6.1-2.8,67.1-53.5,67.1-53.5s3.7-15.3-4-29.4
						c-7.7-14.1-14.5-16.8-14.5-16.8S2005.9,1303.8,1982.7,1337.4z"/>
					<path class="st61" d="M2057.7,1348.9c-15.6-14.6-81.3,32.7-100.2,55.4c-18.9,22.7-1,29.5,37.5,12.5
						C2033.3,1399.8,2082,1371.7,2057.7,1348.9z"/>
				</g>
			</g>
		</g>
		<g>
			
				<linearGradient id="SVGID_00000142136942254621101060000004181732594629747104_" gradientUnits="userSpaceOnUse" x1="182.0324" y1="2133.8855" x2="474.5161" y2="2133.8855">
				<stop  offset="0" style="stop-color:#38ACA8"/>
				<stop  offset="1" style="stop-color:#5F637A"/>
			</linearGradient>
			<polygon style="fill:url(#SVGID_00000142136942254621101060000004181732594629747104_);" points="474.5,2147.9 182,2162 
				182,2119.9 474.5,2105.7 			"/>
			
				<linearGradient id="SVGID_00000000921607634576324350000012915361939709840057_" gradientUnits="userSpaceOnUse" x1="171.6396" y1="2140.9724" x2="192.4252" y2="2140.9724">
				<stop  offset="0" style="stop-color:#587082"/>
				<stop  offset="1" style="stop-color:#1A1E28"/>
			</linearGradient>
			
				<ellipse style="fill:url(#SVGID_00000000921607634576324350000012915361939709840057_);" cx="182" cy="2141" rx="10.4" ry="21.1"/>
			
				<linearGradient id="SVGID_00000176021829638691565570000000469821744886515617_" gradientUnits="userSpaceOnUse" x1="650.9084" y1="2055.1221" x2="579.9115" y2="2188.7373">
				<stop  offset="0" style="stop-color:#38ACA8"/>
				<stop  offset="1" style="stop-color:#5F637A"/>
			</linearGradient>
			<path style="fill:url(#SVGID_00000176021829638691565570000000469821744886515617_);" d="M766,2115.8c0.2-1.1,0.3-2.2,0.3-3.4
				c0-31.6-67.7-57.2-151.2-57.2s-151.2,25.6-151.2,57.2c0,1.1,0.1,2.2,0.3,3.4c-0.2,1.1-0.3,2.2-0.3,3.4c0,1.1,0.1,2.2,0.3,3.4
				c-0.2,1.1-0.3,2.2-0.3,3.4c0,1.1,0.1,2.2,0.3,3.4c-0.2,1.1-0.3,2.2-0.3,3.4c0,31.6,67.7,57.2,151.2,57.2s151.2-25.6,151.2-57.2
				c0-1.1-0.1-2.2-0.3-3.4c0.2-1.1,0.3-2.2,0.3-3.4c0-1.1-0.1-2.2-0.3-3.4c0.2-1.1,0.3-2.2,0.3-3.4
				C766.3,2118,766.2,2116.9,766,2115.8z M615.1,2161.2c-62,0-113.8-16.6-126.1-38.7c12.2-22.1,64-38.7,126.1-38.7
				c62,0,113.8,16.6,126.1,38.7C729,2144.6,677.2,2161.2,615.1,2161.2z"/>
			
				<linearGradient id="SVGID_00000026854873186722558260000014907420446218024363_" gradientUnits="userSpaceOnUse" x1="463.9256" y1="2105.741" x2="766.2923" y2="2105.741">
				<stop  offset="0" style="stop-color:#587082"/>
				<stop  offset="1" style="stop-color:#1A1E28"/>
			</linearGradient>
			<path style="fill:url(#SVGID_00000026854873186722558260000014907420446218024363_);" d="M615.1,2048.5
				c-83.5,0-151.2,25.6-151.2,57.2c0,31.6,67.7,57.2,151.2,57.2s151.2-25.6,151.2-57.2C766.3,2074.2,698.6,2048.5,615.1,2048.5z
				 M615.1,2154.5c-71.2,0-128.8-21.8-128.8-48.7s57.7-48.7,128.8-48.7c71.2,0,128.8,21.8,128.8,48.7S686.3,2154.5,615.1,2154.5z"/>
		</g>
		
			<linearGradient id="SVGID_00000158025173942031089230000005957486887983367562_" gradientUnits="userSpaceOnUse" x1="1543.0895" y1="1347.5715" x2="1259.1139" y2="1490.9376">
			<stop  offset="0" style="stop-color:#38ACA8"/>
			<stop  offset="1" style="stop-color:#5F637A"/>
		</linearGradient>
		<path style="fill:url(#SVGID_00000158025173942031089230000005957486887983367562_);" d="M1055.7,1541.9c0,0,9.6,13.1,37.9,13.9
			c28.2,0.9,31.7,0,31.7,0l12.4,76.6c0,0,39.9,31,114.3,21.4c74.4-9.6,80.8-14.5,80.8-14.5l5.3-126l22.7,59.2c0,0,10.1,7.6,37.7-3.4
			c27.7-11,27.7-11,27.7-11s-62.6-176.7-85.3-193.3c-22.7-16.5-120.6-16.8-169.5-7.9c-48.9,9-55.4,24.5-63,39.6
			C1100.9,1411.8,1055.7,1541.9,1055.7,1541.9z"/>
		
			<linearGradient id="SVGID_00000118395766796374240720000000066528992709414301_" gradientUnits="userSpaceOnUse" x1="1371.2996" y1="1644.2794" x2="1200.7323" y2="1730.3909">
			<stop  offset="0" style="stop-color:#587082"/>
			<stop  offset="1" style="stop-color:#1A1E28"/>
		</linearGradient>
		<path style="fill:url(#SVGID_00000118395766796374240720000000066528992709414301_);" d="M1252,1653.8c0,0-19.8,178.2-26.7,190.9
			c-6.9,12.7-70.1,30.8-90.2,17s-50.4-101.5-50.4-101.5s3.2-19.5,25.5-22.7c22.3-3.2,16.5-2.7,16.5-2.7l11.1-102.4
			C1137.7,1632.5,1181.1,1656.6,1252,1653.8z"/>
		
			<linearGradient id="SVGID_00000147927956553407809190000012368109726392018350_" gradientUnits="userSpaceOnUse" x1="1551.3309" y1="1601.7867" x2="1367.9995" y2="1694.3424" gradientTransform="matrix(0.9991 -4.170000e-02 4.170000e-02 0.9991 -127.298 45.0108)">
			<stop  offset="0" style="stop-color:#587082"/>
			<stop  offset="1" style="stop-color:#1A1E28"/>
		</linearGradient>
		<path style="fill:url(#SVGID_00000147927956553407809190000012368109726392018350_);" d="M1343.2,1564.8
			c-6-19.3-25.5-31.3-45.5-28.5c-34.5,4.9-52.6,28.1-54.3,92.4c-2,79.7-1,199.8-1,201.5c0.1,1.8,16.6,11.8,40,10.2
			c23.4-1.6,37.8-8.7,37.8-8.7s27.8-177.9,28-229.4C1348.3,1586.7,1346.2,1574.4,1343.2,1564.8z"/>
		
			<linearGradient id="SVGID_00000133503480842357785040000008392190630933414300_" gradientUnits="userSpaceOnUse" x1="1651.4596" y1="1871.4944" x2="942.1921" y2="1925.6523">
			<stop  offset="0" style="stop-color:#587082"/>
			<stop  offset="1" style="stop-color:#1A1E28"/>
		</linearGradient>
		<path style="fill:url(#SVGID_00000133503480842357785040000008392190630933414300_);" d="M873,1999.3c-9.4,0-18.1-4.7-23.3-12.4
			c-5.2-7.8-6.2-17.6-2.6-26.3l34.7-136.9c5.4-13,17.9-21.4,32-21.4h648.5c15.4,0,29.8,8.2,37.5,21.5l47.6,130.7
			c5.5,9.3,5.5,20.5,0.2,29.9c-5.4,9.4-15.1,15-25.9,15H873z"/>
		
			<linearGradient id="SVGID_00000101080221314243052810000004687375640694987174_" gradientUnits="userSpaceOnUse" x1="1682.792" y1="1900.7996" x2="764.2109" y2="1900.7996">
			<stop  offset="0" style="stop-color:#38ACA8"/>
			<stop  offset="1" style="stop-color:#5F637A"/>
		</linearGradient>
		<path style="fill:url(#SVGID_00000101080221314243052810000004687375640694987174_);" d="M1621.8,1984.8H873
			c-9.6,0-16.2-9.8-12.4-18.6l34.7-136.9c3.1-7.6,10.4-12.4,18.6-12.4h648.5c10.3,0,19.8,5.5,25,14.3l9.5,26.1l-12.5,2.6l12.7,45.8
			l18.2,1.9l19.8,54.3C1640.9,1972,1633.6,1984.8,1621.8,1984.8z"/>
		<g>
			<path class="st70" d="M1271,1344.4v19.1c0,0-15,13-37.8,10.9c-22.8-2.1-34.2-12.4-34.2-12.4v-30.4L1271,1344.4z"/>
			
				<linearGradient id="SVGID_00000085968536581496396230000003132701993287484812_" gradientUnits="userSpaceOnUse" x1="1280.3297" y1="1298.259" x2="1205.2375" y2="1292.0013">
				<stop  offset="0" style="stop-color:#FFD9D9"/>
				<stop  offset="1" style="stop-color:#EFB4B4"/>
			</linearGradient>
			<path style="fill:url(#SVGID_00000085968536581496396230000003132701993287484812_);" d="M1174.5,1277.7c0,0-4.9-13.3-11.4-10.2
				c-6.5,3.1,11.7,30.9,14.2,34.9c2.5,4,5.9,55.3,54.4,59c48.5,3.7,54.1-52.5,56.5-56.8s16.1-34.6,9.3-38.9
				c-6.8-4.3-10.2,9-11.7,8.7c-1.5-0.3,0.3-36.8-19.2-42.9c-19.5-6.2-47.6-0.9-51.3,0s-41.7,24.7-41.7,24.7L1174.5,1277.7z"/>
			
				<linearGradient id="SVGID_00000018199858451306451620000001819285214652671663_" gradientUnits="userSpaceOnUse" x1="1280.7744" y1="1203.6122" x2="1180.9227" y2="1300.8589">
				<stop  offset="0" style="stop-color:#587082"/>
				<stop  offset="1" style="stop-color:#1A1E28"/>
			</linearGradient>
			<path style="fill:url(#SVGID_00000018199858451306451620000001819285214652671663_);" d="M1173.7,1275.9c0,0,1.2,10.6,1.5,19.1
				h5.9c-0.3-1.8-0.5-3.2-0.5-4c0-5.3-1.5-29-1.5-29s7.4,7.4,46.3,5.9c38.9-1.5,50.1-25.6,50.1-25.6s2.8,6.5,4.9,14.2
				c0.9,3.2,2.5,6,4.1,8.2c0,0.2-0.1,0.4,0,0.6c0.3,1.9-0.8,15.7-2.8,29.8h6.2c0.5-9.7,1.4-20.4,1.8-26l7.7-3.3
				c0,0,2.2-14.2,0.3-31.8c-1.9-17.6-17-33.1-30.3-38c-13.3-4.9-49.4-14.4-80.3,2.6c-30.9,17-20.2,69.1-20.2,69.1L1173.7,1275.9z"/>
		</g>
		<g>
			<path class="st49" d="M1200.4,1914.5c1-2,1.5-4.2,1.5-6.3c0-2.2-0.5-4.3-1.5-6.3l-23.1-0.1c-1.7-2.9-4.7-5.6-8.9-8.1l16.4-6.1
				c-6.4-3.5-14.5-6.6-23.7-9.1l-16.4,6.2c-6.5-1.6-13.6-2.7-21.2-3.4l0-8.8c-5.4-0.4-11-0.6-16.8-0.6c-5.8,0-11.4,0.2-16.8,0.5
				l0,8.8c-7.6,0.6-14.8,1.8-21.3,3.3l-16.4-6.2c-9.3,2.4-17.4,5.5-23.8,8.9l16.4,6.2c-4.1,2.5-7.1,5.2-8.9,8.1l-23.1-0.1
				c-1,2-1.5,4.2-1.5,6.3c0,2.2,0.5,4.3,1.5,6.3l23.1,0.1c1.7,2.9,4.7,5.6,8.9,8.1l-16.4,6.2c6.4,3.5,14.4,6.6,23.6,9.1l16.4-6.2
				c6.5,1.6,13.7,2.7,21.4,3.4l0,8.8c5.4,0.4,11,0.6,16.8,0.6c5.8,0,11.4-0.2,16.8-0.5l0-8.8c7.6-0.6,14.9-1.8,21.4-3.3l16.4,6.2
				c9.3-2.4,17.3-5.5,23.6-8.9l-16.4-6.2c4.1-2.5,7.1-5.1,8.9-8L1200.4,1914.5z M1106.6,1923.8c-23.1-0.1-41.8-7.2-41.7-15.9
				c0-8.7,18.7-15.8,41.8-15.7c23.1,0.1,41.8,7.2,41.7,15.9C1148.4,1916.8,1129.7,1923.8,1106.6,1923.8z"/>
			<path class="st49" d="M1490.3,1896.1c1.6-3.3,2.4-6.7,2.4-10.2c0-3.5-0.8-6.9-2.4-10.2l-37-0.1c-2.8-4.6-7.6-9-14.2-13l26.2-9.8
				c-10.2-5.6-23.2-10.6-38-14.5l-26.2,9.9c-10.4-2.5-21.8-4.4-34-5.5l0-14c-8.6-0.6-17.6-0.9-26.8-1c-9.2,0-18.2,0.3-26.8,0.8l0,14
				c-12.2,1-23.6,2.8-34,5.3l-26.2-10c-14.8,3.8-27.8,8.7-38,14.3l26.2,9.9c-6.6,3.9-11.4,8.3-14.2,12.9l-37-0.1
				c-1.6,3.3-2.4,6.7-2.4,10.1c0,3.5,0.8,6.9,2.4,10.2l37,0.1c2.8,4.6,7.6,9,14.2,12.9l-26.2,9.9c10.2,5.6,23,10.5,37.8,14.5
				l26.2-9.9c10.4,2.5,22,4.4,34.2,5.5l0,14c8.6,0.6,17.6,0.9,26.8,1c9.2,0,18.2-0.3,26.8-0.8l0-14c12.2-1,23.8-2.8,34.2-5.3
				l26.2,10c14.8-3.9,27.6-8.7,37.8-14.3l-26.2-10c6.6-3.9,11.4-8.2,14.2-12.9L1490.3,1896.1z M1340.2,1910.9
				c-36.9-0.1-66.8-11.5-66.8-25.5c0-14,30-25.3,66.9-25.2c36.9,0.1,66.8,11.5,66.8,25.5C1407,1899.8,1377.1,1911,1340.2,1910.9z"/>
		</g>
		
			<linearGradient id="SVGID_00000023965537748784507460000010862089486422276738_" gradientUnits="userSpaceOnUse" x1="1234.406" y1="1652.6725" x2="1151.6243" y2="1694.4652">
			<stop  offset="0" style="stop-color:#FFD9D9"/>
			<stop  offset="1" style="stop-color:#EFB4B4"/>
		</linearGradient>
		<path style="fill:url(#SVGID_00000023965537748784507460000010862089486422276738_);" d="M1063.3,1548.1c0,0-11.8,70.2-11.8,79
			s98.2,168.7,105.7,178.9c7.5,10.2,0.5,48.7,14.9,52.8s34.6,7.5,34.6-8.1s-14.2-39.3-2.7-32.5c11.5,6.8,25.7,18.3,21.7,5.4
			c-4.1-12.9-32.5-32.5-34.6-37.3c-2-4.7-80.6-159.9-80.6-166.7c0-6.8,14.8-63.7,14.8-63.7S1080.4,1552.4,1063.3,1548.1z"/>
		
			<linearGradient id="SVGID_00000029726179520151024310000002097383718426318782_" gradientUnits="userSpaceOnUse" x1="1563.9137" y1="1630.5164" x2="1420.5287" y2="1702.9048">
			<stop  offset="0" style="stop-color:#FFD9D9"/>
			<stop  offset="1" style="stop-color:#EFB4B4"/>
		</linearGradient>
		<path style="fill:url(#SVGID_00000029726179520151024310000002097383718426318782_);" d="M1364.2,1574c0,0,11.3,24.4,12,37.1
			c0.7,12.7-7.9,179.6-12,190.8c-4.2,11.3,0.9,21.1,5.1,28.2c4.1,7,14.7,16.9,14.7,0c0-16.9,3.2-6.7,14.6,9.3
			c11.4,16,27.6,18.1,39.6,11.8c12-6.3-28.9-44.4-24.6-66.2c4.2-21.8,19-184.5,19-198.6c0-14.1-11.3-30.6-11.3-30.6
			S1393.2,1565.8,1364.2,1574z"/>
		<g>
			<g>
				
					<linearGradient id="SVGID_00000084512779772191686820000001428819305511515527_" gradientUnits="userSpaceOnUse" x1="1081.1145" y1="1799.2419" x2="1062.7642" y2="1942.9861" gradientTransform="matrix(-1 0 0 1 1837.4854 0)">
					<stop  offset="0" style="stop-color:#38ACA8"/>
					<stop  offset="1" style="stop-color:#5F637A"/>
				</linearGradient>
				<path style="fill:url(#SVGID_00000084512779772191686820000001428819305511515527_);" d="M744.2,1864.8v84.3
					c0,3.7-1,7.3-2.8,10.2l47-67.7c2-3.1,3.2-6.8,3.2-10.7V1799c0-5.8-6.4-8.8-10-4.4l-45.7,54.4
					C740.9,1852,744.2,1858,744.2,1864.8z"/>
				
					<linearGradient id="SVGID_00000183943154731516017520000008651188053480881328_" gradientUnits="userSpaceOnUse" x1="1051.9081" y1="1824.9041" x2="1438.002" y2="1824.9041" gradientTransform="matrix(-1 0 0 1 1837.4854 0)">
					<stop  offset="0" style="stop-color:#38ACA8"/>
					<stop  offset="1" style="stop-color:#5F637A"/>
				</linearGradient>
				<path style="fill:url(#SVGID_00000183943154731516017520000008651188053480881328_);" d="M399.5,1849.4l0.3,7.9
					c2.8-5.4,2.3-10.6,8.2-10.6h320.1c2.9,0,5.5,0.8,7.8,2.4l49.7-56.5H472L399.5,1849.4z"/>
				
					<linearGradient id="SVGID_00000067211705553298697220000005312176052634298301_" gradientUnits="userSpaceOnUse" x1="1453.6886" y1="1906.9788" x2="1051.1917" y2="1906.9788" gradientTransform="matrix(-1 0 0 1 1837.4854 0)">
					<stop  offset="0" style="stop-color:#38ACA8"/>
					<stop  offset="1" style="stop-color:#5F637A"/>
				</linearGradient>
				<path style="fill:url(#SVGID_00000067211705553298697220000005312176052634298301_);" d="M391.8,1864.8v84.3
					c0,2.1,0.3,4.2,1,6.2c2.2,7,8.1,12,15.1,12h320.1c5.2,0,9.9-2.8,12.8-7.1l0.6-0.8c1.7-2.9,2.8-6.5,2.8-10.2v-84.3
					c0-6.8-3.3-12.8-8.3-15.8c-2.3-1.6-4.9-2.4-7.8-2.4H407.9c-5.9,0-11,3.6-13.8,8.9c-0.6,1-1,1.9-1.3,3.1
					C392.1,1860.6,391.8,1862.7,391.8,1864.8z"/>
				<path class="st110" d="M391.8,1864.8v84.3c0,2.1,0.3,4.2,1,6.2h325.2c5.6,0,10.2-5.1,10.2-11.4V1870c0-6.3-4.5-11.4-10.2-11.4
					H392.9C392.1,1860.6,391.8,1862.7,391.8,1864.8z"/>
			</g>
			<g>
				
					<linearGradient id="SVGID_00000091735548914369797550000005378397093282308542_" gradientUnits="userSpaceOnUse" x1="1118.4292" y1="1735.4281" x2="1106.2472" y2="1830.8539" gradientTransform="matrix(-1 0 0 1 1837.4854 0)">
					<stop  offset="0" style="stop-color:#FFAC06"/>
					<stop  offset="1" style="stop-color:#F87C18"/>
				</linearGradient>
				<path style="fill:url(#SVGID_00000091735548914369797550000005378397093282308542_);" d="M707.8,1779v56.4
					c0,2.5-0.8,4.9-2.2,6.8l37.9-45.3c1.6-2.1,2.6-4.6,2.6-7.2V1735c0-3.9-5.2-5.9-8.1-2.9l-36.9,36.4
					C705.1,1770.4,707.8,1774.4,707.8,1779z"/>
				
					<linearGradient id="SVGID_00000088811187454743660590000004672612635881708947_" gradientUnits="userSpaceOnUse" x1="1096.3118" y1="1752.278" x2="1407.7252" y2="1752.278" gradientTransform="matrix(-1 0 0 1 1837.4854 0)">
					<stop  offset="0" style="stop-color:#FFAC06"/>
					<stop  offset="1" style="stop-color:#F87C18"/>
				</linearGradient>
				<path style="fill:url(#SVGID_00000088811187454743660590000004672612635881708947_);" d="M429.8,1768.6l0.2,5.3
					c2.2-3.6,1.8-7.1,6.6-7.1h258.2c2.3,0,4.4,0.5,6.3,1.6l40-37.8h-253L429.8,1768.6z"/>
				
					<linearGradient id="SVGID_00000152942421384241523180000008389058624467382929_" gradientUnits="userSpaceOnUse" x1="1420.3777" y1="1807.1559" x2="1095.7338" y2="1807.1559" gradientTransform="matrix(-1 0 0 1 1837.4854 0)">
					<stop  offset="0" style="stop-color:#FFAC06"/>
					<stop  offset="1" style="stop-color:#F87C18"/>
				</linearGradient>
				<path style="fill:url(#SVGID_00000152942421384241523180000008389058624467382929_);" d="M423.6,1779v56.4
					c0,1.4,0.2,2.8,0.8,4.1c1.8,4.7,6.6,8,12.2,8h258.2c4.2,0,8-1.8,10.3-4.8l0.5-0.5c1.4-2,2.2-4.3,2.2-6.8V1779
					c0-4.6-2.7-8.6-6.7-10.5c-1.9-1.1-4-1.6-6.3-1.6H436.6c-4.8,0-8.9,2.4-11.1,6c-0.5,0.7-0.8,1.3-1.1,2.1
					C423.8,1776.1,423.6,1777.6,423.6,1779z"/>
				<path class="st110" d="M423.6,1779v56.4c0,1.4,0.2,2.8,0.8,4.1h262.3c4.5,0,8.2-3.4,8.2-7.6v-49.4c0-4.2-3.7-7.6-8.2-7.6H424.4
					C423.8,1776.1,423.6,1777.6,423.6,1779z"/>
			</g>
			<g>
				
					<linearGradient id="SVGID_00000171717008100142192550000000259214725490290603_" gradientUnits="userSpaceOnUse" x1="1137.2102" y1="1691.9064" x2="1128.949" y2="1756.6199" gradientTransform="matrix(-1 0 0 1 1837.4854 0)">
					<stop  offset="0" style="stop-color:#38ACA8"/>
					<stop  offset="1" style="stop-color:#5F637A"/>
				</linearGradient>
				<path style="fill:url(#SVGID_00000171717008100142192550000000259214725490290603_);" d="M690.5,1721.4v38.5
					c0,1.7-0.7,3.3-1.8,4.7l30.2-30.9c1.3-1.4,2.1-3.1,2.1-4.9v-37.4c0-2.7-4.1-4-6.4-2l-29.4,24.8
					C688.4,1715.6,690.5,1718.3,690.5,1721.4z"/>
				
					<linearGradient id="SVGID_00000073690021952633312660000014641651848002429594_" gradientUnits="userSpaceOnUse" x1="1120.382" y1="1703.2096" x2="1368.5195" y2="1703.2096" gradientTransform="matrix(-1 0 0 1 1837.4854 0)">
					<stop  offset="0" style="stop-color:#38ACA8"/>
					<stop  offset="1" style="stop-color:#5F637A"/>
				</linearGradient>
				<path style="fill:url(#SVGID_00000073690021952633312660000014641651848002429594_);" d="M469,1714.4l0.2,3.6
					c1.8-2.4,1.4-4.9,5.3-4.9h205.8c1.9,0,3.5,0.4,5,1.1l31.9-25.8H515.5L469,1714.4z"/>
				
					<linearGradient id="SVGID_00000031891295884789933250000016285297975103002021_" gradientUnits="userSpaceOnUse" x1="1378.6012" y1="1740.6874" x2="1119.9214" y2="1740.6874" gradientTransform="matrix(-1 0 0 1 1837.4854 0)">
					<stop  offset="0" style="stop-color:#38ACA8"/>
					<stop  offset="1" style="stop-color:#5F637A"/>
				</linearGradient>
				<path style="fill:url(#SVGID_00000031891295884789933250000016285297975103002021_);" d="M464.1,1721.4v38.5
					c0,1,0.2,1.9,0.7,2.8c1.4,3.2,5.2,5.5,9.7,5.5h205.8c3.4,0,6.3-1.3,8.2-3.3l0.4-0.4c1.1-1.3,1.8-3,1.8-4.7v-38.5
					c0-3.1-2.1-5.9-5.3-7.2c-1.5-0.7-3.2-1.1-5-1.1H474.4c-3.8,0-7.1,1.6-8.9,4.1c-0.4,0.4-0.7,0.9-0.8,1.4
					C464.2,1719.5,464.1,1720.5,464.1,1721.4z"/>
				<path class="st110" d="M464.1,1721.4v38.5c0,1,0.2,1.9,0.7,2.8h209c3.6,0,6.5-2.3,6.5-5.2v-33.7c0-2.9-2.9-5.2-6.5-5.2h-209
					C464.2,1719.5,464.1,1720.5,464.1,1721.4z"/>
			</g>
		</g>
		<g>
			
				<linearGradient id="SVGID_00000042698949496919060800000011822779140236977599_" gradientUnits="userSpaceOnUse" x1="747.6868" y1="2142.8154" x2="1755.2759" y2="2142.8154">
				<stop  offset="0" style="stop-color:#FFAC06"/>
				<stop  offset="1" style="stop-color:#F87C18"/>
			</linearGradient>
			<path style="fill:url(#SVGID_00000042698949496919060800000011822779140236977599_);" d="M1735.7,2250.8H765
				c-12.3,0-20.8-12.5-16-23.9l52.9-176c3.9-9.7,13.4-16,23.9-16h833.5c13.2,0,25.4,7,32.1,18.4l12.2,33.5l-16.1,3.4l16.3,58.8
				l23.4,2.4l25.4,69.8C1760.3,2234.3,1750.8,2250.8,1735.7,2250.8z"/>
			<polygon class="st49" points="1361.6,2055.6 1361.6,2230.6 1695.6,2230.6 1640.6,2055.6 			"/>
			<polygon class="st49" points="1111.4,2055.6 1063,2230.6 789.5,2230.6 840,2055.6 			"/>
			
				<linearGradient id="SVGID_00000023267038407215272150000008831786072183589505_" gradientUnits="userSpaceOnUse" x1="1111.368" y1="2096.7029" x2="1332.6053" y2="2096.7029">
				<stop  offset="0" style="stop-color:#38ACA8"/>
				<stop  offset="1" style="stop-color:#5F637A"/>
			</linearGradient>
			<polygon style="fill:url(#SVGID_00000023267038407215272150000008831786072183589505_);" points="1111.4,2137.8 1332.6,2137.8 
				1332.6,2055.6 1132.1,2055.6 			"/>
			<polygon class="st49" points="1120.7,2130.5 1137.7,2062.9 1325.3,2062.9 1325.3,2130.5 			"/>
			
				<linearGradient id="SVGID_00000084530276899091081110000003984609886494849201_" gradientUnits="userSpaceOnUse" x1="1090.6833" y1="2189.5635" x2="1332.6053" y2="2189.5635">
				<stop  offset="0" style="stop-color:#38ACA8"/>
				<stop  offset="1" style="stop-color:#5F637A"/>
			</linearGradient>
			<polygon style="fill:url(#SVGID_00000084530276899091081110000003984609886494849201_);" points="1090.7,2230.6 1332.6,2230.6 
				1332.6,2148.5 1111.4,2148.5 			"/>
			<g>
				<path class="st66" d="M1394.6,2220.6L1394.6,2220.6c-3.2,0-5.9-2.6-6.1-5.9l-4.2-132.9c-0.1-3.2,2.5-5.9,5.7-5.9l0,0
					c3.2,0,5.9,2.6,6.1,5.9l4.2,132.9C1400.4,2218,1397.9,2220.6,1394.6,2220.6z"/>
				<path class="st66" d="M1421.6,2220.6L1421.6,2220.6c-3.2,0-5.9-2.6-6.1-5.9l-4.2-132.9c-0.1-3.2,2.5-5.9,5.7-5.9l0,0
					c3.2,0,5.9,2.6,6.1,5.9l4.2,132.9C1427.4,2218,1424.8,2220.6,1421.6,2220.6z"/>
				<path class="st66" d="M1448.6,2220.6L1448.6,2220.6c-3.2,0-5.9-2.6-6.1-5.9l-4.2-132.9c-0.1-3.2,2.5-5.9,5.7-5.9l0,0
					c3.2,0,5.9,2.6,6.1,5.9l4.2,132.9C1454.3,2218,1451.8,2220.6,1448.6,2220.6z"/>
				<path class="st66" d="M1475.5,2220.6L1475.5,2220.6c-3.2,0-5.9-2.6-6.1-5.9l-4.2-132.9c-0.1-3.2,2.5-5.9,5.7-5.9h0
					c3.2,0,5.9,2.6,6.1,5.9l4.2,132.9C1481.3,2218,1478.7,2220.6,1475.5,2220.6z"/>
				<path class="st66" d="M1506,2220.6L1506,2220.6c-3.2,0-6-2.6-6.2-5.9l-7.5-132.9c-0.2-3.2,2.3-5.9,5.5-5.9h0
					c3.2,0,6,2.6,6.2,5.9l7.5,132.9C1511.8,2218,1509.3,2220.6,1506,2220.6z"/>
				<path class="st66" d="M1540.5,2220.6L1540.5,2220.6c-3.2,0-6.2-2.6-6.5-5.9l-14.4-132.9c-0.3-3.2,2-5.9,5.2-5.9l0,0
					c3.2,0,6.2,2.6,6.5,5.9l14.4,132.9C1546,2218,1543.7,2220.6,1540.5,2220.6z"/>
				<path class="st66" d="M1569.8,2220.6L1569.8,2220.6c-3.2,0-6.2-2.6-6.6-5.9l-16.5-132.9c-0.4-3.2,1.9-5.9,5.1-5.9l0,0
					c3.2,0,6.2,2.6,6.6,5.9l16.5,132.9C1575.3,2218,1573,2220.6,1569.8,2220.6z"/>
				<path class="st66" d="M1605.6,2220.6L1605.6,2220.6c-3.2,0-6.4-2.6-7-5.9l-24.6-132.9c-0.6-3.2,1.5-5.9,4.8-5.9l0,0
					c3.2,0,6.4,2.6,7,5.9l24.6,132.9C1610.9,2218,1608.8,2220.6,1605.6,2220.6z"/>
				<path class="st66" d="M1640.4,2220.6L1640.4,2220.6c-3.2,0-6.5-2.6-7.3-5.9l-31.9-132.9c-0.8-3.2,1.2-5.9,4.5-5.9l0,0
					c3.2,0,6.5,2.6,7.3,5.9l31.9,132.9C1645.6,2218,1643.6,2220.6,1640.4,2220.6z"/>
			</g>
			<g>
				<path class="st66" d="M818.8,2216.1L818.8,2216.1c-3.2,0-5.1-2.5-4.1-5.6l40.9-125.5c1-3.1,4.4-5.6,7.7-5.6l0,0
					c3.2,0,5.1,2.5,4.1,5.6l-40.9,125.5C825.5,2213.6,822,2216.1,818.8,2216.1z"/>
				<path class="st66" d="M845.7,2216.1L845.7,2216.1c-3.2,0-5.1-2.5-4.1-5.6l40.9-125.5c1-3.1,4.4-5.6,7.7-5.6l0,0
					c3.2,0,5.1,2.5,4.1,5.6l-40.9,125.5C852.4,2213.6,849,2216.1,845.7,2216.1z"/>
				<path class="st66" d="M872.7,2216.1L872.7,2216.1c-3.2,0-5.1-2.5-4.1-5.6l40.9-125.5c1-3.1,4.4-5.6,7.7-5.6l0,0
					c3.2,0,5.1,2.5,4.1,5.6l-40.9,125.5C879.4,2213.6,875.9,2216.1,872.7,2216.1z"/>
				<path class="st66" d="M899.7,2216.1L899.7,2216.1c-3.2,0-5.1-2.5-4.1-5.6l40.9-125.5c1-3.1,4.4-5.6,7.7-5.6l0,0
					c3.2,0,5.1,2.5,4.1,5.6l-40.9,125.5C906.4,2213.6,902.9,2216.1,899.7,2216.1z"/>
				<path class="st66" d="M927.2,2215.2L927.2,2215.2c-3.2-0.1-5-2.7-4-5.7l43.1-123.8c1-3,4.5-5.4,7.8-5.2l0,0c3.2,0.1,5,2.7,4,5.7
					L935,2209.9C933.9,2213,930.4,2215.3,927.2,2215.2z"/>
				<path class="st66" d="M961.5,2215.3L961.5,2215.3c-3.2-0.1-5.1-2.7-4.2-5.8l36.4-124c0.9-3,4.2-5.4,7.5-5.2l0,0
					c3.2,0.1,5.1,2.7,4.2,5.8l-36.4,124C968.1,2213.1,964.7,2215.5,961.5,2215.3z"/>
				<path class="st66" d="M990.1,2215.1L990.1,2215.1c-3.2-0.2-5.1-2.8-4.3-5.8l35.7-123.7c0.9-3,4.2-5.3,7.4-5.1l0,0
					c3.2,0.2,5.1,2.8,4.3,5.8L997.5,2210C996.6,2213,993.3,2215.3,990.1,2215.1z"/>
				<path class="st66" d="M1023.5,2214.8L1023.5,2214.8c-3.2-0.3-5.2-3-4.4-6l31.8-123.2c0.8-3,4-5.2,7.3-4.9l0,0
					c3.2,0.3,5.2,3,4.4,6l-31.8,123.2C1030,2212.9,1026.7,2215.1,1023.5,2214.8z"/>
				<path class="st66" d="M1054.5,2214.3L1054.5,2214.3c-3.2-0.5-5.2-3.3-4.4-6.3l31.8-122.2c0.8-3,4-5,7.2-4.5l0,0
					c3.2,0.5,5.2,3.3,4.4,6.3l-31.8,122.2C1060.9,2212.7,1057.7,2214.8,1054.5,2214.3z"/>
			</g>
			
				<linearGradient id="SVGID_00000033367786409607121240000017332510219517278373_" gradientUnits="userSpaceOnUse" x1="1120.7087" y1="2094.8789" x2="1293.905" y2="2094.8789">
				<stop  offset="0" style="stop-color:#38ACA8"/>
				<stop  offset="1" style="stop-color:#5F637A"/>
			</linearGradient>
			<polygon style="fill:url(#SVGID_00000033367786409607121240000017332510219517278373_);" points="1208.5,2059.3 1293.9,2085.4 
				1216.8,2099.6 1241.7,2112.6 1208.5,2130.5 1120.7,2130.5 1137.7,2062.9 			"/>
			
				<linearGradient id="SVGID_00000105408088405104666810000002536399273246852542_" gradientUnits="userSpaceOnUse" x1="1276.5465" y1="2111.4143" x2="1305.1801" y2="2111.4143">
				<stop  offset="0" style="stop-color:#38ACA8"/>
				<stop  offset="1" style="stop-color:#5F637A"/>
			</linearGradient>
			
				<ellipse style="fill:url(#SVGID_00000105408088405104666810000002536399273246852542_);" cx="1290.9" cy="2111.4" rx="14.3" ry="7.7"/>
			<polygon class="st49" points="1187.8,2175.6 1236.2,2175.6 1210.1,2206.8 			"/>
		</g>
		<g>
			
				<linearGradient id="SVGID_00000103265355352545558100000012423295513862589323_" gradientUnits="userSpaceOnUse" x1="2021.8306" y1="2225.6816" x2="1892.4009" y2="2065.042">
				<stop  offset="0" style="stop-color:#E5E5E5"/>
				<stop  offset="1" style="stop-color:#F9F9F8"/>
			</linearGradient>
			<path style="fill:url(#SVGID_00000103265355352545558100000012423295513862589323_);" d="M1966.1,2283.4l-184.1-175.8
				c-6-5.7-6.6-23.6,1.4-25.5l231.7-44.7L1966.1,2283.4z"/>
			
				<linearGradient id="SVGID_00000000915372236755039300000009556094987294900395_" gradientUnits="userSpaceOnUse" x1="1967.6519" y1="2071.9927" x2="2446.9346" y2="2071.9927">
				<stop  offset="0" style="stop-color:#E5E5E5"/>
				<stop  offset="1" style="stop-color:#F9F9F8"/>
			</linearGradient>
			<path style="fill:url(#SVGID_00000000915372236755039300000009556094987294900395_);" d="M2370.6,2175.9l-392.3,107.5l-10.6-9.4
				l58-300.7c1.7-8.7,8.3-15.6,16.9-17.7l388.8-94.7c8.9-2.2,17.1,5.6,15.3,14.6l-53.3,276.4
				C2391.1,2163.7,2382.2,2173.1,2370.6,2175.9z"/>
			
				<linearGradient id="SVGID_00000160188705278978619660000017743202272378189208_" gradientUnits="userSpaceOnUse" x1="2217.9036" y1="2240.3792" x2="2217.9036" y2="1984.5513">
				<stop  offset="0" style="stop-color:#E5E5E5"/>
				<stop  offset="1" style="stop-color:#F9F9F8"/>
			</linearGradient>
			<path style="fill:url(#SVGID_00000160188705278978619660000017743202272378189208_);" d="M2381.2,2185.3l-402.9,98.1l58-300.7
				c1.7-8.7,8.3-15.6,16.9-17.7l388.8-94.7c8.9-2.2,17.1,5.6,15.3,14.6l-53.3,276.4C2401.8,2173.1,2392.8,2182.5,2381.2,2185.3z"/>
			
				<linearGradient id="SVGID_00000144331554946908666370000013387518259738063529_" gradientUnits="userSpaceOnUse" x1="1778.7131" y1="2151.0239" x2="2015.072" y2="2151.0239">
				<stop  offset="0" style="stop-color:#E5E5E5"/>
				<stop  offset="1" style="stop-color:#F9F9F8"/>
			</linearGradient>
			<path style="fill:url(#SVGID_00000144331554946908666370000013387518259738063529_);" d="M1967.7,2274l-185.7-175.8
				c-6-5.7-3.2-15.7,4.8-17.6l228.3-52.6L1967.7,2274z"/>
			<polygon class="st126" points="1996.6,2118.9 1892.6,2143.6 1976.9,2225.8 			"/>
		</g>
	</g>
</g>
</svg>
